<?xml version="1.0" encoding="utf-8"?>
<svg version="1.1" xmlns="http://www.w3.org/2000/svg" xmlns:xlink="http://www.w3.org/1999/xlink" x="0px" y="0px"
	 viewBox="0 0 560 560" style="enable-background:new 0 0 560 560;" xml:space="preserve">
<style type="text/css">
	.st2{fill:#3B5B8E !important;}
	.st3{fill:#567BAB !important;}
	.st4{fill:#74B4D5 !important;}
	.st5{fill:#6F87AC !important;}
	.st6{fill:#3A5487 !important;}
	.st7{fill:#93B1C1 !important;}
	.st8{fill:#355D9B !important;}
	.st9{fill:#3D75B9 !important;}
	.st10{fill:#3861A2 !important;}
	.st11{fill:#66AEDB !important;}
	.st12{fill:#57A3DB !important;}
	.st13{fill:#5DAEE0 !important;}
	.st14{fill:#546DA0 !important;}
	.st15{fill:#489AD2 !important;}
	.st16{fill:#3B7AC0 !important;}
	.st17{fill:#3F7AC2 !important;}
	.st18{fill:#6AB5E2 !important;}
	.st19{fill:#3C3B71 !important;}
	.st20{fill:#83ABCC !important;}
	.st21{fill:#EFDDE4 !important;}
	.st22{fill:#3A5CA3 !important;}
	.st23{fill:#2B62A0 !important;}
	.st24{fill:#5A7BAC !important;}
	.st25{fill:#3B6FB1 !important;}
	.st26{fill:#59A5D9 !important;}
	.st27{fill:#5379A9 !important;}
	.st28{fill:#395E9A !important;}
	.st29{fill:#3D355E !important;}
	.st30{fill:#ABB6CA !important;}
	.st31{fill:#7DB4DB !important;}
	.st32{fill:#A7B8C8 !important;}
	.st33{fill:#8BB3CE !important;}
	.st34{fill:#C6D5E2 !important;}
	.st35{fill:#3C6AA9 !important;}
	.st36{fill:#55AEE1 !important;}
	.st37{fill:#3F94D4 !important;}
	.st38{fill:#A2CDE9 !important;}
	.st39{fill:#5DABDD !important;}
	.st40{fill:#7F96B1 !important;}
	.st41{fill:#C8D5E7 !important;}
	.st42{fill:#4090D5 !important;}
	.st43{fill:#77B5DC !important;}
	.st44{fill:#3E8DCA !important;}
	.st45{fill:#49A1D7 !important;}
	.st46{fill:#3E8ACD !important;}
	.st47{fill:#3B5496 !important;}
	.st48{fill:#546D9F !important;}
	.st49{fill:#8AB5D1 !important;}
	.st50{fill:#AACDE2 !important;}
	.st51{fill:#7493C1 !important;}
	.st52{fill:#77B5D7 !important;}
	.st53{fill:#50A8DC !important;}
	.st54{fill:#9CCBE8 !important;}
	.st55{fill:#ADB8B3 !important;}
	.st56{fill:#ACD4EF !important;}
	.st57{fill:#6471A8 !important;}
	.st58{fill:#72B9E3 !important;}
	.st59{fill:#3B5DAE !important;}
	.st60{fill:#4190D3 !important;}
	.st61{fill:#3D78C5 !important;}
	.st62{fill:#5D78B1 !important;}
	.st63{fill:#86BFE6 !important;}
	.st64{fill:#4090D2 !important;}
	.st65{fill:#4D9BCB !important;}
	.st66{fill:#4292CD !important;}
	.st67{fill:#3D4B89 !important;}
	.st68{fill:#6F84AF !important;}
	.st69{fill:#BBC9E2 !important;}
	.st70{fill:#395892 !important;}
	.st71{fill:#8EAECC !important;}
	.st72{fill:#3C4D8B !important;}
	.st73{fill:#F3E7DD !important;}
	.st74{fill:#426DB1 !important;}
	.st75{fill:#C9C7AC !important;}
	.st76{fill:#3B3A69 !important;}
	.st77{fill:#44447C !important;}
	.st78{fill:#3E66A9 !important;}
	.st79{fill:#3D609B !important;}
	.st80{fill:#4695D0 !important;}
	.st81{fill:#3C5495 !important;}
	.st82{fill:#3D3A6C !important;}
	.st83{fill:#3B568B !important;}
	.st84{fill:#5B6688 !important;}
	.st85{fill:#4E6C9D !important;}
	.st86{fill:#75B5D4 !important;}
	.st87{fill:#4A98C8 !important;}
	.st88{fill:#6EC0EE !important;}
	.st89{fill:#3B5179 !important;}
	.st90{fill:#566AA2 !important;}
	.st91{fill:#D3CDC8 !important;}
	.st92{fill:#8DA0B6 !important;}
	.st93{fill:#3C5688 !important;}
	.st94{fill:#385599 !important;}
	.st95{fill:#3C6BB3 !important;}
	.st96{fill:#3F406F !important;}
	.st97{fill:#3E3A6C !important;}
	.st98{fill:#3D4880 !important;}
	.st99{fill:#3C488C !important;}
	.st100{fill:#4065A1 !important;}
	.st101{fill:#6EA2CE !important;}
	.st102{fill:#506D9E !important;}
	.st103{fill:#90C8E4 !important;}
	.st104{fill:#3E3A6E !important;}
	.st105{fill:#3C62A0 !important;}
	.st106{fill:#422C53 !important;}
	.st107{fill:#3F3765 !important;}
	.st108{fill:#3F4272 !important;}
	.st109{fill:#394785 !important;}
	.st110{fill:#3A5292 !important;}
	.st111{fill:#3A3E65 !important;}
	.st112{fill:#3775B5 !important;}
	.st113{fill:#3C59A1 !important;}
	.st114{fill:#3A5A9F !important;}
	.st115{fill:#3C6EB5 !important;}
	.st116{fill:#88BEE2 !important;}
	.st117{fill:#4796D1 !important;}
	.st118{fill:#54A4D8 !important;}
	.st119{fill:#3B70B6 !important;}
	.st120{fill:#56AFE2 !important;}
	.st121{fill:#408AC9 !important;}
	.st122{fill:#62A0C8 !important;}
	.st123{fill:#4394D3 !important;}
	.st124{fill:#397BC2 !important;}
	.st125{fill:#4269B6 !important;}
	.st126{fill:#6EBDE4 !important;}
	.st127{fill:#3B5AA5 !important;}
	.st128{fill:#3E86C3 !important;}
	.st129{fill:#3A71B2 !important;}
	.st130{fill:#4C9BD4 !important;}
	.st131{fill:#52A7DE !important;}
	.st132{fill:#91C7E1 !important;}
	.st133{fill:#4977B0 !important;}
	.st134{fill:#669AC5 !important;}
	.st135{fill:#4096D3 !important;}
	.st136{fill:#474D8D !important;}
	.st137{fill:#3E65B3 !important;}
	.st138{fill:#454684 !important;}
	.st139{fill:#365CA5 !important;}
	.st140{fill:#3B599D !important;}
	.st141{fill:#3D5D9D !important;}
	.st142{fill:#3B69B2 !important;}
	.st143{fill:#3C89CA !important;}
	.st144{fill:#6297C7 !important;}
	.st145{fill:#5186BC !important;}
	.st146{fill:#3A78AE !important;}
	.st147{fill:#3C89D0 !important;}
	.st148{fill:#4C82BB !important;}
	.st149{fill:#7BC6E6 !important;}
	.st150{fill:#402453 !important;}
	.st151{fill:#679AC5 !important;}
	.st152{fill:#B5B5CE !important;}
	.st153{fill:#3963A2 !important;}
	.st154{fill:#6998B2 !important;}
	.st155{fill:#5794C7 !important;}
	.st156{fill:#C1B7D1 !important;}
	.st157{fill:#83BADC !important;}
	.st158{fill:#3A4E84 !important;}
	.st159{fill:#489DD4 !important;}
	.st160{fill:#EBEFF5 !important;}
	.st161{fill:#F2DBDA !important;}
	.st162{fill:#536D9F !important;}
	.st163{fill:#7BA3CF !important;}
	.st164{fill:#679ECB !important;}
	.st165{fill:#B2B8CD !important;}
	.st166{fill:#C1DBEB !important;}
	.st167{fill:#BACEE4 !important;}
	.st168{fill:#E4CDDA !important;}
	.st169{fill:#A9A9BC !important;}
	.st170{fill:#EFD6DD !important;}
	.st171{fill:#B7D2E1 !important;}
	.st172{fill:#6DA0CC !important;}
	.st173{fill:#E3DACE !important;}
	.st174{fill:#3D7AC2 !important;}
	.st175{fill:#DFD5CC !important;}
	.st176{fill:#3C5B92 !important;}
	.st177{fill:#37335A !important;}
	.st178{fill:#5177A7 !important;}
	.st179{fill:#395795 !important;}
	.st180{fill:#3D85CD !important;}
	.st181{fill:#3A5CA6 !important;}
	.st182{fill:none;stroke:#FFFFFF;stroke-width:0.4;stroke-miterlimit:10;}
	.st183{fill:none;stroke:#FFFFFF;stroke-width:0.9;stroke-miterlimit:10;}
	.st184{fill:none;stroke:#FFFFFF;stroke-opacity:0;}

	

	<!-- SHAKING ANIMATION -->
	.shake-outline {
		animation: shake 0.82s cubic-bezier(.36,.07,.19,.97) 0s infinite alternate;
	}

	.shake-outline2 {
		animation: shake2 0.82s cubic-bezier(.36,.07,.19,.97) 0s infinite alternate;
	}

	@keyframes shake {
		10%, 90%, 30%, 50%, 70% { transform: translate3d(0, -4px, 0); }
		20%, 80%, 40%, 60% { transform: translate3d(5px, 0, 0); }
	}

	@keyframes shake2 {
		10%, 90%, 30%, 50%, 70% { transform: translate3d(0, -4px, 0); }
		20%, 80%, 40%, 60% { transform: translate3d(-5px, 0, 0); }
	}

	<!-- CHANGE COLOR ANIMATION -->
	.change-color-inside-background {
		fill: url("#inside-background-rectangle-pupple");
	}

	<!-- HEARTBEAT -->

	.heart-beat {
		transform-origin: 50% 50%;
		animation: heartbeat 1s .5s infinite;
	}

	@keyframes heartbeat {
		0%, 40%, 80%, 100% { transform: scale( .8 ); }
		20%, 60% { transform: scale( .92 ); }
	}

	<!-- Fade-in -->
	.fade-in {
		transform-origin: 50% 50%;
		animation: fade-in 12.5s, heartbeat 1s .5s infinite;
		animation-fill-mode: forwards;
	}

	@keyframes fade-in {
		from { opacity: 0; }
		to { opacity: 1; }
	}

	.st1Old { fill:none;stroke:#FFFFFF;stroke-width:0.9;stroke-miterlimit:10; }
	.st2Old { fill:none;stroke:#FFFFFF;stroke-width:0.4;stroke-miterlimit:10; }
	.st4Old { fill:url(#inside-background-rectangle_1_); }
	.st420 { fill:none;stroke:#FFFFFF;stroke-width:0.9;stroke-miterlimit:10; }
	#inside-background-rectangle { z-index: 99; }
	.blur { opacity: 0; }

	#outside-background-rectangle {
		fill: url("#outside-background-rectangle_1_");
	}

	.fill-gradient {
		fill: url("#inside-background-rectangle-green");
		transform: scale(1);
		transition: transform 1s linear;
	}

	.fill-gradient:hover {
		fill: url("#inside-background-rectangle-pupple");
	}


</style>
<defs>
	<!-- outside gradient -->
	<radialGradient id="outside-background-rectangle_1_" cx="280" cy="280" r="280" gradientUnits="userSpaceOnUse">
		<stop  offset="0" style="stop-color:#FFFFFF"/>
		<stop  offset="0.9946" style="stop-color:#9AA2AE"/>
	</radialGradient>

	<!-- green gradient -->
	<radialGradient id="inside-background-rectangle-green" cx="280" cy="280" r="127.6459" gradientUnits="userSpaceOnUse">
		<stop  offset="0.3027" style="stop-color:#16A085"/>
		<stop  offset="1" style="stop-color:#BDC3C7"/>
	</radialGradient>

	<!-- puple gradient -->
	<radialGradient id="inside-background-rectangle-pupple" cx="280" cy="280" r="127.6459" gradientUnits="userSpaceOnUse">
		<stop  offset="0.3027" style="stop-color:#9b59b6"/>
		<stop  offset="1" style="stop-color:#BDC3C7"/>
	</radialGradient>
</defs>

<g id="outside-background">
	<rect id="outside-background-rectangle" x="0" y="0" width="560" height="560"/>
</g>
<g id="inside-background">
	<circle id="inside-background-rectangle" class="fill-gradient" cx="280" cy="280" r="125"/>
</g>
<g id="headphone">
	<g id="gHeadPhone">
		<polygon class="st2r st420" points="280,109.7 280,62.1 270.2,99.9 		"/>
		<polygon class="st3r st420" points="280,109.7 267.4,126.6 280,119.6 		"/>
		<polygon class="st4r st420" points="267.4,126.6 280,126.6 280,119.6 		"/>
		<polygon class="st5r st420" points="280,109.7 260.4,109.7 267.4,126.6 		"/>
		<polygon class="st6r st420" points="280,62.1 247.8,64.9 250.6,83.1 		"/>
		<polygon class="st7r st420" points="260.4,109.7 246.4,126.6 267.4,126.6 		"/>
		<polygon class="st8r st420" points="260.4,109.7 250.6,83.1 246.4,126.6 		"/>
		<polygon class="st9r st420" points="235.2,129.4 246.4,126.6 228.2,108.3 		"/>
		<polygon class="st10r st420" points="228.2,108.3 223.9,133.6 235.2,129.4 		"/>
		<polygon class="st11r st420" points="223.9,133.6 216.9,118.2 197.3,143.4 		"/>
		<polygon class="st12r st420" points="177.7,108.3 176.3,158.8 197.3,143.4 		"/>
		<polygon class="st13r st420" points="131.5,178.4 159.5,177 176.3,158.8 		"/>
		<polygon class="st14r st420" points="131.5,178.4 148.3,193.8 159.5,177 		"/>
		<polygon class="st15r st420" points="132.9,203.6 141.3,203.6 148.3,193.8 		"/>
		<polygon class="st16r st420" points="148.3,193.8 131.5,178.4 132.9,203.6 		"/>
		<polygon class="st17r st420" points="131.5,178.4 114.6,195.2 132.9,203.6 		"/>
		<polygon class="st18r st420" points="114.6,195.2 110.4,205 132.9,203.6 		"/>
		<polygon class="st19r st420" points="97.8,186.8 107.6,216.2 110.4,205 		"/>
		<polygon class="st20r st420" points="90.8,233.1 104.8,224.6 107.6,216.2 		"/>
		<polygon class="st21r st420" points="90.8,233.1 102,238.7 104.8,224.6 		"/>
		<polygon class="st22r st420" points="90.8,233.1 100.6,248.5 102,238.7 		"/>
		<polygon class="st23r st420" points="95,272.3 100.6,269.5 100.6,248.5 		"/>
		<polygon class="st24r st420" points="82.4,258.3 89.4,272.3 95,272.3 		"/>
		<polygon class="st25r st420" points="95,272.3 100.6,248.5 82.4,258.3 		"/>
		<polygon class="st26r st420" points="90.8,233.1 82.4,258.3 100.6,248.5 		"/>
		<polygon class="st27r st420" points="82.4,258.3 72.6,272.3 89.4,272.3 		"/>
		<polygon class="st28r st420" points="76.8,245.7 67,268.1 72.6,272.3 		"/>
		<polygon class="st29r st420" points="76.8,245.7 69.8,235.9 67,268.1 		"/>
		<polygon class="st30r st420" points="88,230.3 72.6,224.6 69.8,235.9 		"/>
		<polygon class="st31r st420" points="85.2,203.6 74,212 72.6,224.6 		"/>
		<polygon class="st32r st420" points="85.2,203.6 76.8,202.2 74,212 		"/>
		<polygon class="st33r st420" points="95,198 82.4,188.2 76.8,202.2 		"/>
		<polygon class="st34r st420" points="93.6,191 86.6,175.6 82.4,188.2 		"/>
		<polygon class="st35r st420" points="107.6,161.6 92.2,164.4 86.6,175.6 		"/>
		<polygon class="st36r st420" points="107.6,161.6 100.6,150.4 92.2,164.4 		"/>
		<polygon class="st37r st420" points="142.7,118.2 117.5,129.4 100.6,150.4 		"/>
		<polygon class="st38r st420" points="142.7,118.2 130.1,115.3 117.5,129.4 		"/>
		<polygon class="st39r st420" points="169.3,111.1 145.5,102.7 130.1,115.3 		"/>
		<polygon class="st40r st420" points="169.3,111.1 180.5,95.7 145.5,102.7 		"/>
		<polygon class="st41r st420" points="180.5,95.7 165.1,90.1 145.5,102.7 		"/>
		<polygon class="st42r st420" points="198.7,91.5 181.9,83.1 165.1,90.1 		"/>
		<polygon class="st43r st420" points="198.7,91.5 225.3,80.3 181.9,83.1 		"/>
		<polygon class="st44r st420" points="225.3,80.3 201.5,73.3 181.9,83.1 		"/>
		<polygon class="st45r st420" points="247.8,64.9 218.3,67.7 201.5,73.3 		"/>
		<polygon class="st46r st420" points="201.5,73.3 225.3,80.3 247.8,64.9 		"/>
		<polygon class="st47r st420" points="225.3,80.3 250.6,83.1 247.8,64.9 		"/>
		<polygon class="st48r st420" points="246.4,126.6 250.6,83.1 228.2,108.3 		"/>
		<polygon class="st49r st420" points="228.2,108.3 225.3,80.3 207.1,91.5 		"/>
		<polygon class="st50r st420" points="228.2,108.3 250.6,83.1 225.3,80.3 		"/>
		<polygon class="st51r st420" points="207.1,91.5 225.3,80.3 198.7,91.5 		"/>
		<polygon class="st52r st420" points="198.7,91.5 216.9,118.2 207.1,91.5 		"/>
		<polygon class="st53r st420" points="165.1,90.1 180.5,95.7 198.7,91.5 		"/>
		<polygon class="st54r st420" points="180.5,95.7 216.9,118.2 198.7,91.5 		"/>
		<polygon class="st55r st420" points="216.9,118.2 180.5,95.7 177.7,108.3 		"/>
		<polygon class="st56r st420" points="177.7,108.3 197.3,143.4 216.9,118.2 		"/>
		<polygon class="st57r st420" points="177.7,108.3 180.5,95.7 169.3,111.1 		"/>
		<polygon class="st36r st420" points="142.7,118.2 169.3,111.1 130.1,115.3 		"/>
		<polygon class="st58r st420" points="135.7,150.4 142.7,118.2 100.6,150.4 		"/>
		<polygon class="st59r st420" points="135.7,150.4 169.3,111.1 142.7,118.2 		"/>
		<polygon class="st60r st420" points="169.3,111.1 176.3,158.8 177.7,108.3 		"/>
		<polygon class="st61r st420" points="169.3,111.1 135.7,150.4 176.3,158.8 		"/>
		<polygon class="st62r st420" points="176.3,158.8 135.7,150.4 128.7,164.4 		"/>
		<polygon class="st63r st420" points="100.6,150.4 107.6,161.6 128.7,164.4 		"/>
		<polygon class="st64r st420" points="128.7,164.4 131.5,178.4 176.3,158.8 		"/>
		<polygon class="st65r st420" points="128.7,164.4 107.6,161.6 131.5,178.4 		"/>
		<polygon class="st66r st420" points="131.5,178.4 97.8,186.8 114.6,195.2 		"/>
		<polygon class="st67r st420" points="110.4,205 114.6,195.2 97.8,186.8 		"/>
		<polygon class="st68r st420" points="131.5,178.4 107.6,161.6 97.8,186.8 		"/>
		<polygon class="st69r st420" points="107.6,161.6 86.6,175.6 97.8,186.8 		"/>
		<polygon class="st70r st420" points="97.8,186.8 86.6,175.6 93.6,191 		"/>
		<polygon class="st71r st420" points="93.6,191 82.4,188.2 95,198 		"/>
		<polygon class="st72r st420" points="95,198 97.8,186.8 93.6,191 		"/>
		<polygon class="st73r st420" points="85.2,203.6 95,198 76.8,202.2 		"/>
		<polygon class="st74r st420" points="95,198 107.6,216.2 97.8,186.8 		"/>
		<polygon class="st75r st420" points="85.2,203.6 107.6,216.2 95,198 		"/>
		<polygon class="st76r st420" points="72.6,224.6 88,230.3 85.2,203.6 		"/>
		<polygon class="st77r st420" points="88,230.3 107.6,216.2 85.2,203.6 		"/>
		<polygon class="st78r st420" points="88,230.3 90.8,233.1 107.6,216.2 		"/>
		<polygon class="st79r st420" points="69.8,235.9 90.8,233.1 88,230.3 		"/>
		<polygon class="st80r st420" points="76.8,245.7 90.8,233.1 69.8,235.9 		"/>
		<polygon class="st81r st420" points="76.8,245.7 82.4,258.3 90.8,233.1 		"/>
		<polygon class="st82r st420" points="76.8,245.7 72.6,272.3 82.4,258.3 		"/>
		<polygon class="st83r st420" points="78.2,272.3 85.2,287.7 89.4,272.3 		"/>
		<polygon class="st84r st420" points="88,301.7 78.2,296.1 78.2,308.7 		"/>
		<polygon class="st85r st420" points="89.4,317.1 78.2,314.3 89.4,322.7 		"/>
		<polygon class="st86r st420" points="85.2,287.7 88,301.7 89.4,272.3 		"/>
		<polygon class="st87r st420" points="78.2,272.3 78.2,296.1 85.2,287.7 		"/>
		<polygon class="st88r st420" points="78.2,296.1 88,301.7 85.2,287.7 		"/>
		<polygon class="st89r st420" points="78.2,314.3 89.4,317.1 88,301.7 		"/>
		<polygon class="st90r st420" points="78.2,308.7 78.2,314.3 88,301.7 		"/>
		<polygon class="st91r st420" points="78.2,314.3 78.2,328.3 83.8,322.7 		"/>
		<polygon class="st92r st420" points="83.8,322.7 89.4,322.7 78.2,314.3 		"/>
		<polygon class="st93r st420" points="83.8,322.7 86.6,336.8 89.4,322.7 		"/>
		<polygon class="st94r st420" points="86.6,336.8 89.4,341 89.4,322.7 		"/>
		<polygon class="st95r st420" points="78.2,328.3 78.2,350.8 86.6,336.8 		"/>
		<polygon class="st96r st420" points="78.2,350.8 89.4,341 86.6,336.8 		"/>
		<polygon class="st97r st420" points="78.2,360.6 67,360.6 57.2,370.4 		"/>
		<polygon class="st98r st420" points="54.4,402.6 85.2,406.8 54.4,378.8 		"/>
		<polygon class="st99r st420" points="54.4,432 60,441.8 69.8,413.8 		"/>
		<polygon class="st100r st420" points="64.2,441.8 67,446.1 76.8,446.1 		"/>
		<polygon class="st101r st420" points="118.9,364.8 88,388.6 121.7,402.6 		"/>
		<polygon class="st102r st420" points="186.1,367.6 173.5,328.3 134.3,349.4 		"/>
		<polygon class="st103r st420" points="131.5,478.3 102,458.7 109,472.7 		"/>
		<polygon class="st104r st420" points="100.6,360.6 89.4,359.2 68.4,380.2 		"/>
		<polygon class="st105r st420" points="78.2,350.8 89.4,359.2 89.4,341 		"/>
		<polygon class="st106r st420" points="78.2,350.8 78.2,360.6 89.4,359.2 		"/>
		<polygon class="st107r st420" points="57.2,370.4 54.4,378.8 68.4,380.2 		"/>
		<polygon class="st108r st420" points="68.4,380.2 78.2,360.6 57.2,370.4 		"/>
		<polygon class="st109r st420" points="68.4,380.2 89.4,359.2 78.2,360.6 		"/>
		<polygon class="st110r st420" points="100.6,360.6 100.6,359.2 89.4,359.2 		"/>
		<polygon class="st111r st420" points="54.4,378.8 85.2,406.8 68.4,380.2 		"/>
		<polygon class="st106r st420" points="54.4,402.6 69.8,413.8 85.2,406.8 		"/>
		<polygon class="st94r st420" points="54.4,402.6 54.4,432 69.8,413.8 		"/>
		<polygon class="st112r st420" points="60,441.8 67,446.1 64.2,441.8 		"/>
		<polygon class="st113r st420" points="64.2,441.8 85.2,406.8 69.8,413.8 		"/>
		<polygon class="st114r st420" points="69.8,413.8 60,441.8 64.2,441.8 		"/>
		<polygon class="st115r st420" points="76.8,446.1 85.2,406.8 64.2,441.8 		"/>
		<polygon class="st116r st420" points="179.1,469.9 152.5,458.7 169.3,475.5 		"/>
		<polygon class="st117r st420" points="183.3,461.5 188.9,474.1 190.3,454.5 		"/>
		<polygon class="st118r st420" points="158.1,497.9 176.3,495.1 193.1,479.7 		"/>
		<polygon class="st46r st420" points="193.1,479.7 201.5,461.5 190.3,454.5 		"/>
		<polygon class="st119r st420" points="201.5,426.4 190.3,454.5 201.5,461.5 		"/>
		<polygon class="st120r st420" points="188.9,474.1 193.1,479.7 190.3,454.5 		"/>
		<polygon class="st121r st420" points="169.3,475.5 158.1,497.9 193.1,479.7 		"/>
		<polygon class="st122r st420" points="169.3,475.5 193.1,479.7 179.1,469.9 		"/>
		<polygon class="st120r st420" points="169.3,475.5 158.1,482.5 158.1,497.9 		"/>
		<polygon class="st123r st420" points="137.1,469.9 148.3,482.5 158.1,482.5 		"/>
		<polygon class="st124r st420" points="141.3,493.7 148.3,490.9 148.3,482.5 		"/>
		<polygon class="st125r st420" points="131.5,478.3 120.3,485.3 141.3,493.7 		"/>
		<polygon class="st126r st420" points="131.5,478.3 109,472.7 120.3,485.3 		"/>
		<polygon class="st127r st420" points="141.3,493.7 148.3,482.5 131.5,478.3 		"/>
		<polygon class="st128r st420" points="137.1,469.9 120.3,426.4 102,458.7 		"/>
		<polygon class="st129r st420" points="137.1,469.9 102,458.7 131.5,478.3 		"/>
		<polygon class="st46r st420" points="131.5,478.3 148.3,482.5 137.1,469.9 		"/>
		<polygon class="st130r st420" points="158.1,482.5 169.3,475.5 152.5,458.7 		"/>
		<polygon class="st131r st420" points="152.5,458.7 137.1,469.9 158.1,482.5 		"/>
		<polygon class="st117r st420" points="152.5,458.7 120.3,426.4 137.1,469.9 		"/>
		<polygon class="st116r st420" points="152.5,458.7 166.5,448.9 120.3,426.4 		"/>
		<polygon class="st132r st420" points="152.5,458.7 183.3,461.5 166.5,448.9 		"/>
		<polygon class="st46r st420" points="152.5,458.7 179.1,469.9 183.3,461.5 		"/>
		<polygon class="st118r st420" points="179.1,469.9 193.1,479.7 188.9,474.1 183.3,461.5 		"/>
		<polygon class="st133r st420" points="128.7,412.4 173.5,377.4 138.5,370.4 		"/>
		<polygon class="st134r st420" points="109,408.2 100.6,446.1 102,458.7 		"/>
		<polygon class="st135r st420" points="83.8,437.6 89.4,447.5 100.6,446.1 		"/>
		<polygon class="st136r st420" points="83.8,464.3 89.4,461.5 89.4,447.5 		"/>
		<polygon class="st137r st420" points="83.8,437.6 78.2,455.9 83.8,464.3 		"/>
		<polygon class="st119r st420" points="83.8,464.3 89.4,447.5 83.8,437.6 		"/>
		<polygon class="st138r st420" points="83.8,437.6 76.8,446.1 78.2,455.9 		"/>
		<polygon class="st139r st420" points="78.2,455.9 78.2,461.5 83.8,464.3 		"/>
		<polygon class="st140r st420" points="83.8,437.6 85.2,406.8 76.8,446.1 		"/>
		<polygon class="st141r st420" points="83.8,437.6 97.8,420.8 85.2,406.8 		"/>
		<polygon class="st66r st420" points="83.8,437.6 100.6,446.1 97.8,420.8 		"/>
		<polygon class="st142r st420" points="100.6,446.1 109,408.2 97.8,420.8 		"/>
		<polygon class="st143r st420" points="109,408.2 85.2,406.8 97.8,420.8 		"/>
		<polygon class="st144r st420" points="88,388.6 92.2,402.6 109,408.2 		"/>
		<polygon class="st145r st420" points="88,388.6 79.6,387.2 92.2,402.6 		"/>
		<polygon class="st146r st420" points="92.2,402.6 85.2,406.8 109,408.2 		"/>
		<polygon class="st95r st420" points="79.6,387.2 68.4,380.2 85.2,406.8 		"/>
		<polygon class="st133r st420" points="92.2,402.6 79.6,387.2 85.2,406.8 		"/>
		<polygon class="st116r st420" points="88,388.6 109,408.2 121.7,402.6 		"/>
		<polygon class="st147r st420" points="109,408.2 120.3,426.4 121.7,402.6 		"/>
		<polygon class="st148r st420" points="109,408.2 102,458.2 120.3,426.4 		"/>
		<polygon class="st130r st420" points="128.7,412.4 121.7,402.6 120.3,426.4 		"/>
		<polygon class="st149r st420" points="138.5,370.4 118.9,364.8 121.7,402.6 		"/>
		<polygon class="st46r st420" points="138.5,370.4 121.7,402.6 128.7,412.4 		"/>
		<polygon class="st150r st420" points="79.6,387.2 100.6,360.6 68.4,380.2 		"/>
		<polygon class="st105r st420" points="88,388.6 100.6,360.6 79.6,387.2 		"/>
		<polygon class="st128r st420" points="123.1,339.6 100.6,350.8 100.6,359.2 		"/>
		<polygon class="st116r st420" points="123.1,339.6 111.8,329.7 100.6,350.8 		"/>
		<polygon class="st46r st420" points="131.5,322.7 123.1,321.3 111.8,329.7 		"/>
		<polygon class="st127r st420" points="123.1,321.3 131.5,322.7 134.3,312.9 		"/>
		<polygon class="st126r st420" points="139.9,336.8 145.5,312.9 134.3,312.9 		"/>
		<polygon class="st151r st420" points="148.3,328.3 148.3,317.1 145.5,312.9 		"/>
		<polygon class="st85r st420" points="165.1,326.9 158.1,322.7 148.3,322.7 		"/>
		<polygon class="st152r st420" points="158.1,307.3 158.1,322.7 173.5,315.7 		"/>
		<polygon class="st26r st420" points="165.1,326.9 173.5,315.7 158.1,322.7 		"/>
		<polygon class="st122r st420" points="134.3,349.4 139.9,336.8 123.1,339.6 		"/>
		<polygon class="st129r st420" points="123.1,339.6 131.5,322.7 111.8,329.7 		"/>
		<polygon class="st116r st420" points="123.1,339.6 139.9,336.8 131.5,322.7 		"/>
		<polygon class="st125r st420" points="134.3,312.9 131.5,322.7 139.9,336.8 		"/>
		<polygon class="st153r st420" points="148.3,328.3 139.9,336.8 173.5,328.3 		"/>
		<polygon class="st154r st420" points="139.9,336.8 134.3,349.4 173.5,328.3 		"/>
		<polygon class="st155r st420" points="148.3,328.3 173.5,328.3 165.1,326.9 		"/>
		<polygon class="st156r st420" points="148.3,322.7 148.3,328.3 165.1,326.9 		"/>
		<polygon class="st157r st420" points="118.9,364.8 100.6,360.6 88,388.6 		"/>
		<polygon class="st117r st420" points="118.9,364.8 123.1,339.6 100.6,359.2 		"/>
		<polygon class="st158r st420" points="100.6,359.2 100.6,360.6 118.9,364.8 		"/>
		<polygon class="st101r st420" points="138.5,370.4 134.3,349.4 123.1,339.6 		"/>
		<polyline class="st147r st420" points="123.1,339.6 118.9,364.8 138.5,370.4 123.5,340.3 		"/>
		<polygon class="st159r st420" points="138.5,370.4 186.1,367.6 134.3,349.4 		"/>
		<polygon class="st149r st420" points="186.1,367.6 138.5,370.4 173.5,377.4 		"/>
		<polygon class="st115r st420" points="201.5,373.2 128.7,412.4 120.7,425.7 		"/>
		<polygon class="st117r st420" points="201.5,373.2 173.5,377.4 128.7,412.4 		"/>
		<polygon class="st160r st420" points="188.9,349.4 194.5,331.1 187.5,321.3 		"/>
		<polygon class="st161r st420" points="201.5,343.8 186.1,355 201.5,359.2 		"/>
		<polygon class="st162r st420" points="186.1,318.5 176.3,312.9 177.7,329.7 		"/>
		<polygon class="st163r st420" points="176.3,312.9 169.3,308.7 158.1,307.3 		"/>
		<polygon class="st164r st420" points="158.1,307.3 173.5,315.7 176.3,312.9 		"/>
		<polygon class="st165r st420" points="173.5,315.7 177.7,329.7 176.3,312.9 		"/>
		<polygon class="st166r st420" points="173.5,315.7 173.5,328.3 177.7,329.7 		"/>
		<polygon class="st167r st420" points="173.5,315.7 165.1,326.9 173.5,328.3 		"/>
		<polygon class="st101r st420" points="201.5,373.2 186.1,367.6 173.5,377.4 		"/>
		<polygon class="st168r st420" points="201.5,373.2 201.5,359.2 186.1,355 		"/>
		<polygon class="st169r st420" points="177.7,329.7 186.1,355 188.9,349.4 		"/>
		<polygon class="st170r st420" points="201.5,343.8 188.9,349.4 186.1,355 		"/>
		<polygon class="st171r st420" points="201.5,343.8 194.5,331.1 188.9,349.4 		"/>
		<polygon class="st172r st420" points="187.5,321.3 186.1,318.5 177.7,329.7 		"/>
		<polygon class="st173r st420" points="187.5,321.3 177.7,329.7 188.9,349.4 		"/>
		<polygon class="st144r st420" points="201.5,373.2 186.1,355 186.1,367.6 		"/>
		<polygon class="st149r st420" points="201.5,373.2 180.5,402.6 201.5,411 		"/>
		<polygon class="st143r st420" points="180.5,402.6 120.3,426.4 201.5,411 		"/>
		<polygon class="st116r st420" points="180.5,402.6 201.5,373.2 120.3,426.4 		"/>
		<polygon class="st101r st420" points="120.3,426.4 188.9,420.8 201.5,411 		"/>
		<polygon class="st143r st420" points="188.9,420.8 201.5,426.4 201.5,411 		"/>
		<polygon class="st117r st420" points="188.9,420.8 120.3,426.4 201.5,426.4 		"/>
		<polygon class="st174r st420" points="223.9,133.6 216.9,118.2 228.2,108.3 		"/>
		<polygon class="st101r st420" points="201.5,426.4 166.5,448.9 190.3,454.5 		"/>
		<polygon class="st116r st420" points="183.3,461.5 190.3,454.5 166.5,448.9 		"/>
		<polygon class="st175r st420" points="186.1,367.6 186.1,355 173.5,328.3 		"/>
		<polygon class="st176r st420" points="173.5,328.3 177.7,329.7 186.1,355 		"/>
		<polygon class="st129r st420" points="145.5,312.9 139.9,336.8 148.3,328.3 		"/>
		<polygon class="st35r st420" points="280,62.1 250.6,83.1 270.2,99.9 		"/>
		<polygon class="st177r st420" points="250.6,83.1 260.4,109.7 270.2,99.9 		"/>
		<polygon class="st178r st420" points="270.2,99.9 260.4,109.7 280,109.7 		"/>
		<polygon class="st179r st420" points="207.1,91.5 216.9,118.2 228.2,108.3 		"/>
		<polygon class="st180r st420" points="100.6,150.4 128.7,164.4 135.7,150.4 		"/>
		<polygon class="st181r st420" points="83.8,322.7 78.2,328.3 86.6,336.8 		"/>
		<polygon class="st142r st420" points="120.3,426.4 166.5,448.9 201.5,426.4 		"/>
		<polygon class="st2r st420" points="289.8,99.9 280,62.1 280,109.7 		"/>
		<polygon class="st3r st420" points="280,119.6 292.6,126.6 280,109.7 		"/>
		<polygon class="st4r st420" points="280,119.6 280,126.6 292.6,126.6 		"/>
		<polygon class="st5r st420" points="292.6,126.6 299.6,109.7 280,109.7 		"/>
		<polygon class="st6r st420" points="309.4,83.1 312.2,64.9 280,62.1 		"/>
		<polygon class="st7r st420" points="292.6,126.6 313.6,126.6 299.6,109.7 		"/>
		<polygon class="st8r st420" points="313.6,126.6 309.4,83.1 299.6,109.7 		"/>
		<polygon class="st9r st420" points="331.8,108.3 313.6,126.6 324.8,129.4 		"/>
		<polygon class="st10r st420" points="324.8,129.4 336.1,133.6 331.8,108.3 		"/>
		<polygon class="st11r st420" points="362.7,143.4 343.1,118.2 336.1,133.6 		"/>
		<polygon class="st12r st420" points="362.7,143.4 383.7,158.8 382.3,108.3 		"/>
		<polygon class="st13r st420" points="383.7,158.8 400.5,177 428.5,178.4 		"/>
		<polygon class="st14r st420" points="400.5,177 411.7,193.8 428.5,178.4 		"/>
		<polygon class="st15r st420" points="411.7,193.8 418.7,203.6 427.1,203.6 		"/>
		<polygon class="st16r st420" points="427.1,203.6 428.5,178.4 411.7,193.8 		"/>
		<polygon class="st17r st420" points="427.1,203.6 445.4,195.2 428.5,178.4 		"/>
		<polygon class="st18r st420" points="427.1,203.6 449.6,205 445.4,195.2 		"/>
		<polygon class="st19r st420" points="449.6,205 452.4,216.2 462.2,186.8 		"/>
		<polygon class="st20r st420" points="452.4,216.2 455.2,224.6 469.2,233.1 		"/>
		<polygon class="st21r st420" points="455.2,224.6 458,238.7 469.2,233.1 		"/>
		<polygon class="st22r st420" points="458,238.7 459.4,248.5 469.2,233.1 		"/>
		<polygon class="st23r st420" points="459.4,248.5 459.4,269.5 465,272.3 		"/>
		<polygon class="st24r st420" points="465,272.3 470.6,272.3 477.6,258.3 		"/>
		<polygon class="st25r st420" points="477.6,258.3 459.4,248.5 465,272.3 		"/>
		<polygon class="st26r st420" points="459.4,248.5 477.6,258.3 469.2,233.1 		"/>
		<polygon class="st27r st420" points="470.6,272.3 487.4,272.3 477.6,258.3 		"/>
		<polygon class="st28r st420" points="487.4,272.3 493,268.1 483.2,245.7 		"/>
		<polygon class="st29r st420" points="493,268.1 490.2,235.9 483.2,245.7 		"/>
		<polygon class="st30r st420" points="490.2,235.9 487.4,224.6 472,230.3 		"/>
		<polygon class="st31r st420" points="487.4,224.6 486,212 474.8,203.6 		"/>
		<polygon class="st32r st420" points="486,212 483.2,202.2 474.8,203.6 		"/>
		<polygon class="st33r st420" points="483.2,202.2 477.6,188.2 465,198 		"/>
		<polygon class="st34r st420" points="477.6,188.2 473.4,175.6 466.4,191 		"/>
		<polygon class="st35r st420" points="473.4,175.6 467.8,164.4 452.4,161.6 		"/>
		<polygon class="st36r st420" points="467.8,164.4 459.4,150.4 452.4,161.6 		"/>
		<polygon class="st37r st420" points="459.4,150.4 442.5,129.4 417.3,118.2 		"/>
		<polygon class="st38r st420" points="442.5,129.4 429.9,115.3 417.3,118.2 		"/>
		<polygon class="st39r st420" points="429.9,115.3 414.5,102.7 390.7,111.1 		"/>
		<polygon class="st40r st420" points="414.5,102.7 379.5,95.7 390.7,111.1 		"/>
		<polygon class="st41r st420" points="414.5,102.7 394.9,90.1 379.5,95.7 		"/>
		<polygon class="st42r st420" points="394.9,90.1 378.1,83.1 361.3,91.5 		"/>
		<polygon class="st43r st420" points="378.1,83.1 334.7,80.3 361.3,91.5 		"/>
		<polygon class="st44r st420" points="378.1,83.1 358.5,73.3 334.7,80.3 		"/>
		<polygon class="st45r st420" points="358.5,73.3 341.7,67.7 312.2,64.9 		"/>
		<polygon class="st46r st420" points="312.2,64.9 334.7,80.3 358.5,73.3 		"/>
		<polygon class="st47r st420" points="312.2,64.9 309.4,83.1 334.7,80.3 		"/>
		<polygon class="st48r st420" points="331.8,108.3 309.4,83.1 313.6,126.6 		"/>
		<polygon class="st49r st420" points="352.9,91.5 334.7,80.3 331.8,108.3 		"/>
		<polygon class="st50r st420" points="334.7,80.3 309.4,83.1 331.8,108.3 		"/>
		<polygon class="st51r st420" points="361.3,91.5 334.7,80.3 352.9,91.5 		"/>
		<polygon class="st52r st420" points="352.9,91.5 343.1,118.2 361.3,91.5 		"/>
		<polygon class="st53r st420" points="361.3,91.5 379.5,95.7 394.9,90.1 		"/>
		<polygon class="st54r st420" points="361.3,91.5 343.1,118.2 379.5,95.7 		"/>
		<polygon class="st55r st420" points="382.3,108.3 379.5,95.7 343.1,118.2 		"/>
		<polygon class="st56r st420" points="343.1,118.2 362.7,143.4 382.3,108.3 		"/>
		<polygon class="st57r st420" points="390.7,111.1 379.5,95.7 382.3,108.3 		"/>
		<polygon class="st36r st420" points="429.9,115.3 390.7,111.1 417.3,118.2 		"/>
		<polygon class="st58r st420" points="459.4,150.4 417.3,118.2 424.3,150.4 		"/>
		<polygon class="st59r st420" points="417.3,118.2 390.7,111.1 424.3,150.4 		"/>
		<polygon class="st60r st420" points="382.3,108.3 383.7,158.8 390.7,111.1 		"/>
		<polygon class="st61r st420" points="383.7,158.8 424.3,150.4 390.7,111.1 		"/>
		<polygon class="st62r st420" points="431.3,164.4 424.3,150.4 383.7,158.8 		"/>
		<polygon class="st63r st420" points="431.3,164.4 452.4,161.6 459.4,150.4 		"/>
		<polygon class="st64r st420" points="383.7,158.8 428.5,178.4 431.3,164.4 		"/>
		<polygon class="st65r st420" points="428.5,178.4 452.4,161.6 431.3,164.4 		"/>
		<polygon class="st66r st420" points="445.4,195.2 462.2,186.8 428.5,178.4 		"/>
		<polygon class="st67r st420" points="462.2,186.8 445.4,195.2 449.6,205 		"/>
		<polygon class="st68r st420" points="462.2,186.8 452.4,161.6 428.5,178.4 		"/>
		<polygon class="st69r st420" points="462.2,186.8 473.4,175.6 452.4,161.6 		"/>
		<polygon class="st70r st420" points="466.4,191 473.4,175.6 462.2,186.8 		"/>
		<polygon class="st71r st420" points="465,198 477.6,188.2 466.4,191 		"/>
		<polygon class="st72r st420" points="466.4,191 462.2,186.8 465,198 		"/>
		<polygon class="st73r st420" points="483.2,202.2 465,198 474.8,203.6 		"/>
		<polygon class="st74r st420" points="462.2,186.8 452.4,216.2 465,198 		"/>
		<polygon class="st75r st420" points="465,198 452.4,216.2 474.8,203.6 		"/>
		<polygon class="st76r st420" points="474.8,203.6 472,230.3 487.4,224.6 		"/>
		<polygon class="st77r st420" points="474.8,203.6 452.4,216.2 472,230.3 		"/>
		<polygon class="st78r st420" points="452.4,216.2 469.2,233.1 472,230.3 		"/>
		<polygon class="st79r st420" points="472,230.3 469.2,233.1 490.2,235.9 		"/>
		<polygon class="st80r st420" points="490.2,235.9 469.2,233.1 483.2,245.7 		"/>
		<polygon class="st81r st420" points="469.2,233.1 477.6,258.3 483.2,245.7 		"/>
		<polygon class="st82r st420" points="477.6,258.3 487.4,272.3 483.2,245.7 		"/>
		<polygon class="st83r st420" points="470.6,272.3 474.8,287.7 481.8,272.3 		"/>
		<polygon class="st84r st420" points="481.8,308.7 481.8,296.1 472,301.7 		"/>
		<polygon class="st85r st420" points="470.6,322.7 481.8,314.3 470.6,317.1 		"/>
		<polygon class="st86r st420" points="470.6,272.3 472,301.7 474.8,287.7 		"/>
		<polygon class="st87r st420" points="474.8,287.7 481.8,296.1 481.8,272.3 		"/>
		<polygon class="st88r st420" points="474.8,287.7 472,301.7 481.8,296.1 		"/>
		<polygon class="st89r st420" points="472,301.7 470.6,317.1 481.8,314.3 		"/>
		<polygon class="st90r st420" points="472,301.7 481.8,314.3 481.8,308.7 		"/>
		<polygon class="st91r st420" points="476.2,322.7 481.8,328.3 481.8,314.3 		"/>
		<polygon class="st92r st420" points="481.8,314.3 470.6,322.7 476.2,322.7 		"/>
		<polygon class="st93r st420" points="470.6,322.7 473.4,336.8 476.2,322.7 		"/>
		<polygon class="st94r st420" points="470.6,322.7 470.6,341 473.4,336.8 		"/>
		<polygon class="st95r st420" points="473.4,336.8 481.8,350.8 481.8,328.3 		"/>
		<polygon class="st96r st420" points="473.4,336.8 470.6,341 481.8,350.8 		"/>
		<polygon class="st97r st420" points="502.8,370.4 493,360.6 481.8,360.6 		"/>
		<polygon class="st98r st420" points="505.6,378.8 474.8,406.8 505.6,402.6 		"/>
		<polygon class="st99r st420" points="490.2,413.8 500,441.8 505.6,432 		"/>
		<polygon class="st100r st420" points="483.2,446.1 493,446.1 495.8,441.8 		"/>
		<polygon class="st101r st420" points="438.3,402.6 472,388.6 441.1,364.8 		"/>
		<polygon class="st102r st420" points="425.7,349.4 386.5,328.3 373.9,367.6 		"/>
		<polygon class="st103r st420" points="451,472.7 458,458.7 428.5,478.3 		"/>
		<polygon class="st104r st420" points="491.6,380.2 470.6,359.2 459.4,360.6 		"/>
		<polygon class="st105r st420" points="470.6,341 470.6,359.2 481.8,350.8 		"/>
		<polygon class="st106r st420" points="470.6,359.2 481.8,360.6 481.8,350.8 		"/>
		<polygon class="st107r st420" points="491.6,380.2 505.6,378.8 502.8,370.4 		"/>
		<polygon class="st108r st420" points="502.8,370.4 481.8,360.6 491.6,380.2 		"/>
		<polygon class="st109r st420" points="481.8,360.6 470.6,359.2 491.6,380.2 		"/>
		<polygon class="st110r st420" points="470.6,359.2 459.4,359.2 459.4,360.6 		"/>
		<polygon class="st111r st420" points="491.6,380.2 474.8,406.8 505.6,378.8 		"/>
		<polygon class="st106r st420" points="474.8,406.8 490.2,413.8 505.6,402.6 		"/>
		<polygon class="st94r st420" points="490.2,413.8 505.6,432 505.6,402.6 		"/>
		<polygon class="st112r st420" points="495.8,441.8 493,446.1 500,441.8 		"/>
		<polygon class="st113r st420" points="490.2,413.8 474.8,406.8 495.8,441.8 		"/>
		<polygon class="st114r st420" points="495.8,441.8 500,441.8 490.2,413.8 		"/>
		<polygon class="st115r st420" points="495.8,441.8 474.8,406.8 483.2,446.1 		"/>
		<polygon class="st116r st420" points="390.7,475.5 407.5,458.7 380.9,469.9 		"/>
		<polygon class="st117r st420" points="369.7,454.5 371.1,474.1 376.7,461.5 		"/>
		<polygon class="st118r st420" points="366.9,479.7 383.7,495.1 401.9,497.9 		"/>
		<polygon class="st46r st420" points="369.7,454.5 358.5,461.5 366.9,479.7 		"/>
		<polygon class="st119r st420" points="358.5,461.5 369.7,454.5 358.5,426.4 		"/>
		<polygon class="st120r st420" points="369.7,454.5 366.9,479.7 371.1,474.1 		"/>
		<polygon class="st121r st420" points="366.9,479.7 401.9,497.9 390.7,475.5 		"/>
		<polygon class="st122r st420" points="380.9,469.9 366.9,479.7 390.7,475.5 		"/>
		<polygon class="st120r st420" points="401.9,497.9 401.9,482.5 390.7,475.5 		"/>
		<polygon class="st123r st420" points="401.9,482.5 411.7,482.5 422.9,469.9 		"/>
		<polygon class="st124r st420" points="411.7,482.5 411.7,490.9 418.7,493.7 		"/>
		<polygon class="st125r st420" points="418.7,493.7 439.7,485.3 428.5,478.3 		"/>
		<polygon class="st126r st420" points="439.7,485.3 451,472.7 428.5,478.3 		"/>
		<polygon class="st127r st420" points="428.5,478.3 411.7,482.5 418.7,493.7 		"/>
		<polygon class="st128r st420" points="458,458.7 439.7,426.4 422.9,469.9 		"/>
		<polygon class="st129r st420" points="428.5,478.3 458,458.7 422.9,469.9 		"/>
		<polygon class="st46r st420" points="422.9,469.9 411.7,482.5 428.5,478.3 		"/>
		<polygon class="st130r st420" points="407.5,458.7 390.7,475.5 401.9,482.5 		"/>
		<polygon class="st131r st420" points="401.9,482.5 422.9,469.9 407.5,458.7 		"/>
		<polygon class="st117r st420" points="422.9,469.9 439.7,426.4 407.5,458.7 		"/>
		<polygon class="st116r st420" points="439.7,426.4 393.5,448.9 407.5,458.7 		"/>
		<polygon class="st132r st420" points="393.5,448.9 376.7,461.5 407.5,458.7 		"/>
		<polygon class="st46r st420" points="376.7,461.5 380.9,469.9 407.5,458.7 		"/>
		<polygon class="st118r st420" points="376.7,461.5 371.1,474.1 366.9,479.7 380.9,469.9 		"/>
		<polygon class="st133r st420" points="421.5,370.4 386.5,377.4 431.3,412.4 		"/>
		<polygon class="st134r st420" points="458,458.7 459.4,446.1 451,408.2 		"/>
		<polygon class="st135r st420" points="459.4,446.1 470.6,447.5 476.2,437.6 		"/>
		<polygon class="st136r st420" points="470.6,447.5 470.6,461.5 476.2,464.3 		"/>
		<polygon class="st137r st420" points="476.2,464.3 481.8,455.9 476.2,437.6 		"/>
		<polygon class="st119r st420" points="476.2,437.6 470.6,447.5 476.2,464.3 		"/>
		<polygon class="st138r st420" points="481.8,455.9 483.2,446.1 476.2,437.6 		"/>
		<polygon class="st139r st420" points="476.2,464.3 481.8,461.5 481.8,455.9 		"/>
		<polygon class="st140r st420" points="483.2,446.1 474.8,406.8 476.2,437.6 		"/>
		<polygon class="st141r st420" points="474.8,406.8 462.2,420.8 476.2,437.6 		"/>
		<polygon class="st66r st420" points="462.2,420.8 459.4,446.1 476.2,437.6 		"/>
		<polygon class="st142r st420" points="462.2,420.8 451,408.2 459.4,446.1 		"/>
		<polygon class="st143r st420" points="462.2,420.8 474.8,406.8 451,408.2 		"/>
		<polygon class="st144r st420" points="451,408.2 467.8,402.6 472,388.6 		"/>
		<polygon class="st145r st420" points="467.8,402.6 480.4,387.2 472,388.6 		"/>
		<polygon class="st146r st420" points="451,408.2 474.8,406.8 467.8,402.6 		"/>
		<polygon class="st95r st420" points="474.8,406.8 491.6,380.2 480.4,387.2 		"/>
		<polygon class="st133r st420" points="474.8,406.8 480.4,387.2 467.8,402.6 		"/>
		<polygon class="st116r st420" points="438.3,402.6 451,408.2 472,388.6 		"/>
		<polygon class="st147r st420" points="438.3,402.6 439.7,426.4 451,408.2 		"/>
		<polygon class="st148r st420" points="439.7,426.4 458,458.2 451,408.2 		"/>
		<polygon class="st130r st420" points="439.7,426.4 438.3,402.6 431.3,412.4 		"/>
		<polygon class="st149r st420" points="438.3,402.6 441.1,364.8 421.5,370.4 		"/>
		<polygon class="st46r st420" points="431.3,412.4 438.3,402.6 421.5,370.4 		"/>
		<polygon class="st150r st420" points="491.6,380.2 459.4,360.6 480.4,387.2 		"/>
		<polygon class="st105r st420" points="480.4,387.2 459.4,360.6 472,388.6 		"/>
		<polygon class="st128r st420" points="459.4,359.2 459.4,350.8 436.9,339.6 		"/>
		<polygon class="st116r st420" points="459.4,350.8 448.2,329.7 436.9,339.6 		"/>
		<polygon class="st46r st420" points="448.2,329.7 436.9,321.3 428.5,322.7 		"/>
		<polygon class="st127r st420" points="425.7,312.9 428.5,322.7 436.9,321.3 		"/>
		<polygon class="st126r st420" points="425.7,312.9 414.5,312.9 420.1,336.8 		"/>
		<polygon class="st151r st420" points="414.5,312.9 411.7,317.1 411.7,328.3 		"/>
		<polygon class="st85r st420" points="411.7,322.7 401.9,322.7 394.9,326.9 		"/>
		<polygon class="st152r st420" points="386.5,315.7 401.9,322.7 401.9,307.3 		"/>
		<polygon class="st26r st420" points="401.9,322.7 386.5,315.7 394.9,326.9 		"/>
		<polygon class="st122r st420" points="436.9,339.6 420.1,336.8 425.7,349.4 		"/>
		<polygon class="st129r st420" points="448.2,329.7 428.5,322.7 436.9,339.6 		"/>
		<polygon class="st116r st420" points="428.5,322.7 420.1,336.8 436.9,339.6 		"/>
		<polygon class="st125r st420" points="420.1,336.8 428.5,322.7 425.7,312.9 		"/>
		<polygon class="st153r st420" points="386.5,328.3 420.1,336.8 411.7,328.3 		"/>
		<polygon class="st154r st420" points="386.5,328.3 425.7,349.4 420.1,336.8 		"/>
		<polygon class="st155r st420" points="394.9,326.9 386.5,328.3 411.7,328.3 		"/>
		<polygon class="st156r st420" points="394.9,326.9 411.7,328.3 411.7,322.7 		"/>
		<polygon class="st157r st420" points="472,388.6 459.4,360.6 441.1,364.8 		"/>
		<polygon class="st117r st420" points="459.4,359.2 436.9,339.6 441.1,364.8 		"/>
		<polygon class="st158r st420" points="441.1,364.8 459.4,360.6 459.4,359.2 		"/>
		<polygon class="st101r st420" points="436.9,339.6 425.7,349.4 421.5,370.4 		"/>
		<polyline class="st147r st420" points="436.7,340.3 421.5,370.4 441.1,364.8 436.9,339.6 		"/>
		<polygon class="st159r st420" points="425.7,349.4 373.9,367.6 421.5,370.4 		"/>
		<polygon class="st149r st420" points="386.5,377.4 421.5,370.4 373.9,367.6 		"/>
		<polygon class="st115r st420" points="439.3,425.7 431.3,412.4 358.5,373.2 		"/>
		<polygon class="st117r st420" points="431.3,412.4 386.5,377.4 358.5,373.2 		"/>
		<polygon class="st160r st420" points="372.5,321.3 365.5,331.1 371.1,349.4 		"/>
		<polygon class="st161r st420" points="358.5,359.2 373.9,355 358.5,343.8 		"/>
		<polygon class="st162r st420" points="382.3,329.7 383.7,312.9 373.9,318.5 		"/>
		<polygon class="st163r st420" points="401.9,307.3 390.7,308.7 383.7,312.9 		"/>
		<polygon class="st164r st420" points="383.7,312.9 386.5,315.7 401.9,307.3 		"/>
		<polygon class="st165r st420" points="383.7,312.9 382.3,329.7 386.5,315.7 		"/>
		<polygon class="st166r st420" points="382.3,329.7 386.5,328.3 386.5,315.7 		"/>
		<polygon class="st167r st420" points="386.5,328.3 394.9,326.9 386.5,315.7 		"/>
		<polygon class="st101r st420" points="386.5,377.4 373.9,367.6 358.5,373.2 		"/>
		<polygon class="st168r st420" points="373.9,355 358.5,359.2 358.5,373.2 		"/>
		<polygon class="st169r st420" points="371.1,349.4 373.9,355 382.3,329.7 		"/>
		<polygon class="st170r st420" points="373.9,355 371.1,349.4 358.5,343.8 		"/>
		<polygon class="st171r st420" points="371.1,349.4 365.5,331.1 358.5,343.8 		"/>
		<polygon class="st172r st420" points="382.3,329.7 373.9,318.5 372.5,321.3 		"/>
		<polygon class="st173r st420" points="371.1,349.4 382.3,329.7 372.5,321.3 		"/>
		<polygon class="st144r st420" points="373.9,367.6 373.9,355 358.5,373.2 		"/>
		<polygon class="st149r st420" points="358.5,411 379.5,402.6 358.5,373.2 		"/>
		<polygon class="st143r st420" points="358.5,411 439.7,426.4 379.5,402.6 		"/>
		<polygon class="st116r st420" points="439.7,426.4 358.5,373.2 379.5,402.6 		"/>
		<polygon class="st101r st420" points="358.5,411 371.1,420.8 439.7,426.4 		"/>
		<polygon class="st143r st420" points="358.5,411 358.5,426.4 371.1,420.8 		"/>
		<polygon class="st117r st420" points="358.5,426.4 439.7,426.4 371.1,420.8 		"/>
		<polygon class="st174r st420" points="336.1,133.6 343.1,118.2 331.8,108.3 		"/>
		<polygon class="st101r st420" points="358.5,426.4 393.5,448.9 369.7,454.5 		"/>
		<polygon class="st116r st420" points="376.7,461.5 369.7,454.5 393.5,448.9 		"/>
		<polygon class="st175r st420" points="373.9,367.6 373.9,355 386.5,328.3 		"/>
		<polygon class="st176r st420" points="386.5,328.3 382.3,329.7 373.9,355 		"/>
		<polygon class="st129r st420" points="414.5,312.9 420.1,336.8 411.7,328.3 		"/>
		<polygon class="st35r st420" points="280,62.1 309.4,83.1 289.8,99.9 		"/>
		<polygon class="st177r st420" points="309.4,83.1 299.6,109.7 289.8,99.9 		"/>
		<polygon class="st178r st420" points="289.8,99.9 299.6,109.7 280,109.7 		"/>
		<polygon class="st179r st420" points="352.9,91.5 343.1,118.2 331.8,108.3 		"/>
		<polygon class="st180r st420" points="459.4,150.4 431.3,164.4 424.3,150.4 		"/>
		<polygon class="st181r st420" points="476.2,322.7 481.8,328.3 473.4,336.8 		"/>
		<polygon class="st142r st420" points="439.7,426.4 393.5,448.9 358.5,426.4 		"/>
	</g>
</g>
<g id="outline-headphone-left">
	<polygon id="outline-headphone1" class="st182" points="280.7,126.6 247.1,126.6 224.6,133.6 198,143.4 177,158.8 160.2,177 
		142,203.6 111.1,205 105.5,224.6 102.7,238.7 101.3,269.5 95.7,272.3 90.1,272.3 88.7,301.7 90.1,341 90.1,359.2 101.3,360.6 
		101.3,350.8 112.5,329.7 135,312.9 146.2,312.9 149,317.1 149,322.7 158.8,322.7 158.8,307.3 167.9,307.3 177,312.9 186.8,318.5 
		202.2,341.6 202.2,397 202.2,461.5 193.8,479.7 179.1,493.7 158.8,497.9 158.8,482.5 149,482.5 149,490.9 142,493.7 121,485.3 
		109.7,472.7 102.7,458.2 101.3,446.1 90.1,447.5 90.1,461.5 84.5,464.3 78.9,461.5 77.5,446.1 67.7,446.1 60.7,441.8 55.1,432 
		55.1,378.8 57.9,370.4 67.7,360.6 78.9,360.6 78.9,272.3 73.3,272.3 67.7,268.1 70.5,235.9 77.5,202.2 87.3,175.6 101.3,150.4 
		130.8,115.3 165.8,90.1 199.4,74.7 219,67.7 248.5,64.9 280.7,62.1 	"/>
</g>
<g id="outline-headphone-right">
	<polygon id="outline-headphone2" class="st182" points="280,126.6 313.6,126.6 336.1,133.6 362.7,143.4 383.7,158.8 400.5,177 
		418.7,203.6 449.6,205 455.2,224.6 458,238.7 459.4,269.5 465,272.3 470.6,272.3 472,301.7 470.6,341 470.6,359.2 459.4,360.6 
		459.4,350.8 448.2,329.7 425.7,312.9 414.5,312.9 411.7,317.1 411.7,322.7 401.9,322.7 401.9,307.3 392.8,307.3 383.7,312.9 
		373.9,318.5 358.5,341.6 358.5,397 358.5,461.5 366.9,479.7 381.6,493.7 401.9,497.9 401.9,482.5 411.7,482.5 411.7,490.9 
		418.7,493.7 439.7,485.3 451,472.7 458,458.2 459.4,446.1 470.6,447.5 470.6,461.5 476.2,464.3 481.8,461.5 483.2,446.1 493,446.1 
		500,441.8 505.6,432 505.6,378.8 502.8,370.4 493,360.6 481.8,360.6 481.8,272.3 487.4,272.3 493,268.1 490.2,235.9 483.2,202.2 
		473.4,175.6 459.4,150.4 429.9,115.3 394.9,90.1 361.3,74.7 341.7,67.7 312.2,64.9 280,62.1 	"/>
</g>
<g id="inside-icon">
	<polygon id="icon" fill="#ffffff" class="st1Old" points="268,202 259,195 250,188 243,183 235,177 236,192 235,212 238,226 236,231 235,245 236,250 
		238,259 236,266 234,282 236,293 238,301 236,317 236,323 238,328 236,335 234,347 236,356 237,364 236,374 248,365 253,361 
		257,358 262,355 265,353 270,350 275,347 280,343 285,340 291,336 296,333 307,325 312,322 317,319 324,314 330,311 335,307 
		346,300 354,294 361,289 368,284 371,278 371,274 367,269 361,264 350,256 345,253 338,248 332,244 326,241 317,235 309,230 
		303,225 297,221 290,216 283,212 276,207">

	<animate id="animation-to-heart" begin="indefinite" fill="freeze" attributeName="points" dur="500ms" to="264,179 259,189 257,218 233,177 224,175 231,188 221,184 213,188 214,194 224,195 236,202 
		241,209 231,219 231,223 227,225 225,241 219,246 213,249 213,265 215,268 211,285 217,305 234,326 237,330 243,335 247,338 
		252,343 264,357 279,372 289,372 306,360 334,317 328,300 331,287 334,283 328,274 332,267 334,257 339,258 346,255 346,250 
		351,247 348,241 344,243 344,239 339,240 345,232 337,220 335,222 333,216 310,227 298,215 285,211 285,202 305,195 301,188 
		281,191 273,199 269,220 267,221 271,179"/>

	<animate id="animation-to-play" begin="indefinite" fill="freeze" attributeName="points" dur="500ms" to="268,202 259,195 250,188 243,183 235,177 236,192 235,212 238,226 236,231 235,245 236,250 
		238,259 236,266 234,282 236,293 238,301 236,317 236,323 238,328 236,335 234,347 236,356 237,364 236,374 248,365 253,361 
		257,358 262,355 265,353 270,350 275,347 280,343 285,340 291,336 296,333 307,325 312,322 317,319 324,314 330,311 335,307 
		346,300 354,294 361,289 368,284 371,278 371,274 367,269 361,264 350,256 345,253 338,248 332,244 326,241 317,235 309,230 
		303,225 297,221 290,216 283,212 276,207"/>
		
	</polygon>

	<path id="detail-heart" class="blur" stroke="#ffffff" fill="none" d="M270.4,185.6L263,197l-4-8l12-10 M263,197l1,23l3,1 M271,179h-7l-5,10l-2,29l-24-41l-9-2
		l7,13l-10-4l-8,4l1,6l10,1l12,7l5,7l-10,10v4l-4,2l-2,16l-6,5l-6,3v16l2,3l-4,17l6,20l20,25l10,8l6,6l11,13l15,15h10l17-12l28-43
		l-6-17l3-13l3-4l-6-9l4-7l2-10l5,1l7-3v-5l5-3l-3-6l-4,2v-4l-5,1l6-8l-8-12l-2,2l-2-6l-23,11l-12-12l-13-4v-9l20-7l-4-7l-20,3l-8,8
		l-4,21l-2,1L271,179z M214,271l11,1l18-16l20-28l-18-9l-4-10l16,9l6,10l1-8 M214,295l11-23l-10-4 M211,285l6.5,2.7 M213,265l9-5
		l-3-14 M213,249l9,11l17-15l-6-8l-8,4 M238,230l7-11l-10,1l-4-1 M235,220l-4,3l7,7l1,15l4,11l7-22l-3-6l-9,2 M313,350l-21-14l-14-6
		 M312.6,349.7L291,349l8,16 M321,337l-13-3l-0.8,12L321,337z M327,328l-23-5l4,11 M334,317l-30,6l-21-9l9,22l-3,36l-11-42l1,42
		l6.5-13.4 M244,317l23-1l16-2l30-16l8-6l10-5l-3-13l-10-8l10-15l16-8l2,7l-12,7l-6-6 M333,216l-14,21l26-5 M335,222l-16,15l-9-10
		l-8,14l17-4l5,8l15-5 M273,199l6,14l6-2 M295,214v9l7,18l-6,25l28-21 M302,219l-7,4l-16-10l-2,7h-8 M277,220l18,3 M243,256l24,22
		l22-23l1-9l-2-9l-11-9h-14 M267,278l10-50l-18,25L267,278l20-42 M303,283l17-5l8-4l-7.9,18.7L303,283l-7-17l-7-11l4,28l20,15
		L303,283z M318,266l-19.6,5.9 M320,278l2.5-8.4 M303,283h-10l-9,9l-1,22 M259,281l-15,19l9-25l15,15l16,2l6.6-26l-11.2-0.9L268,290
		l-1,26 M284,292l-4-26.9 M230,288l5-7l18-6l-10-19 M247,338l31-8l-11-14l-30,14l7-13v-17l-14-12l-5-16l10,9 M237,203l5-11l-18,3
		 M221,184l-3,5l13-1l11,4 M218,189l-4,5 M231,188l2-11 M313,298l-9,25l24-23L313,298z"/>
</g>
</svg>
