<?xml version="1.0" encoding="utf-8"?>
<!-- Generator: Adobe Illustrator 21.0.2, SVG Export Plug-In . SVG Version: 6.00 Build 0)  -->
<svg version="1.1" xmlns="http://www.w3.org/2000/svg" xmlns:xlink="http://www.w3.org/1999/xlink" x="0px" y="0px"
	 viewBox="0 0 560 560" style="enable-background:new 0 0 560 560;" xml:space="preserve">
<style type="text/css">
	.st0 { display:none;fill:none;stroke:#FFFFFF;stroke-width:0.4;stroke-miterlimit:10; }
	.st1 { fill:none;stroke:#FFFFFF;stroke-width:0.9;stroke-miterlimit:10; }
	.st2 { fill:none;stroke:#FFFFFF;stroke-width:0.4;stroke-miterlimit:10; }
	.st3 { fill:url(#outside-background-rectangle_1_); }
	.st4 { fill:url(#inside-background-rectangle_1_); }
	.blur { opacity: 0; }
	<!-- SHAKING ANIMATION -->
	.shake-outline {
		animation: shake 0.82s cubic-bezier(.36,.07,.19,.97) 0s infinite alternate;
	}

	@keyframes shake {
		10%, 90%, 30%, 50%, 70% { transform: translate3d(0, -4px, 0); }
		20%, 80%, 40%, 60% { transform: translate3d(5px, 0, 0); }
	}

	<!-- CHANGE COLOR ANIMATION -->
	.change-color-inside-background {
		animation: change-color .5s linear;
		animation-fill-mode: forwards;
	}

	@keyframes change-color {
		from { stop-color: #16a085; }
		to { stop-color: #9b59b6; }
	}

	<!-- HEARTBEAT -->

	.heart-beat {
		transform-origin: 50% 50%;
		animation: heartbeat 1s .5s infinite;
	}

	@keyframes heartbeat {
		0%, 40%, 80%, 100% { transform: scale( .8 ); }
		20%, 60% { transform: scale( .92 ); }
	}

	<!-- Fade-in -->
	.fade-in {
		transform-origin: 50% 50%;
		animation: fade-in 12.5s, heartbeat 1s .5s infinite;
		animation-fill-mode: forwards;
	}

	@keyframes fade-in {
		from { opacity: 0; }
		to { opacity: 1; }
	}


</style>
<g id="outside-background">
	<radialGradient id="outside-background-rectangle_1_" cx="280" cy="280" r="280" gradientUnits="userSpaceOnUse">
		<stop  offset="0" style="stop-color:#FFFFFF"/>
		<stop  offset="0.9946" style="stop-color:#7F8C8D"/>
	</radialGradient>
	<rect id="outside-background-rectangle" x="0" y="0" class="st3" width="560" height="560"/>
</g>
<g id="inside-background">
	<radialGradient id="inside-background-rectangle_1_" cx="280" cy="280" r="127.6459" gradientUnits="userSpaceOnUse">
		<stop  offset="0.3027" style="stop-color:#16A085" id="inside-gradient-stop1"/>
		<stop  offset="1" style="stop-color:#BDC3C7"/>
	</radialGradient>
	<circle id="inside-background-rectangle" class="st4" cx="280" cy="280" r="127.6"/>
</g>
<g id="headphone">
	<path id="headphone_1_" class="st1" d="M280,63.2l29.3,20.9l-19.5,16.7L280,63.2z M299.5,110.6l9.8-26.5l-19.5,16.7L299.5,110.6z
		 M289.8,100.8l-9.8,9.8h19.5L289.8,100.8z M289.8,100.8L280,63.2v47.4L289.8,100.8z M280,120.4l12.5,7L280,110.6V120.4z M280,120.4
		v7h12.5L280,120.4z M292.5,127.3l7-16.7H280L292.5,127.3z M309.3,84.1l2.8-18.1L280,63.2L309.3,84.1z M292.5,127.3h20.9l-13.9-16.7
		L292.5,127.3z M313.5,127.3l-4.2-43.2l-9.8,26.5L313.5,127.3z M331.6,109.2l11.2,9.8l9.8-26.5L331.6,109.2z M331.6,109.2
		l-18.1,18.1l11.2,2.8L331.6,109.2z M324.6,130.1l11.2,4.2l-4.2-25.1L324.6,130.1z M362.3,144.1L342.7,119l-7,15.3L362.3,144.1z
		 M362.3,144.1l20.9,15.3l-1.4-50.2L362.3,144.1z M383.2,159.4l16.7,18.1l27.9,1.4L383.2,159.4z M399.9,177.5l11.2,16.7l16.7-15.3
		L399.9,177.5z M411.1,194.3l7,9.8h8.4L411.1,194.3z M426.4,204l1.4-25.1l-16.7,15.3L426.4,204z M426.4,204l18.1-8.4l-16.7-16.7
		L426.4,204z M426.4,204l22.3,1.4l-4.2-9.8L426.4,204z M448.7,205.4l2.8,11.2l9.8-29.3L448.7,205.4z M451.5,216.6l2.8,8.4l13.9,8.4
		L451.5,216.6z M454.3,224.9l2.8,13.9l11.2-5.6L454.3,224.9z M457.1,238.9l1.4,9.8l9.8-15.3L457.1,238.9z M458.5,248.6v20.9l5.6,2.8
		L458.5,248.6z M464,272.3h5.6l7-13.9L464,272.3z M476.6,258.4l-18.1-9.8l5.6,23.7L476.6,258.4z M458.5,248.6l18.1,9.8l-8.4-25.1
		L458.5,248.6z M469.6,272.3h16.7l-9.8-13.9L469.6,272.3z M486.3,272.3l5.6-4.2l-9.8-22.3L486.3,272.3z M491.9,268.1l-2.8-32.1
		l-7,9.8L491.9,268.1z M489.1,236.1l-2.8-11.2l-15.3,5.6L489.1,236.1z M486.3,224.9l-1.4-12.5l-11.2-8.4L486.3,224.9z M484.9,212.4
		l-2.8-9.8l-8.4,1.4L484.9,212.4z M482.2,202.6l-5.6-13.9l-12.5,9.8L482.2,202.6z M476.6,188.7l-4.2-12.5l-7,15.3L476.6,188.7z
		 M472.4,176.1l-5.6-11.2l-15.3-2.8L472.4,176.1z M466.8,165l-8.4-13.9l-7,11.2L466.8,165z M458.5,151h-34.9l7,13.9L458.5,151z
		 M458.5,151l-16.7-20.9L416.6,119L458.5,151z M441.7,130.1l-12.5-13.9l-12.5,2.8L441.7,130.1z M429.2,116.2l-15.3-12.5l-23.7,8.4
		L429.2,116.2z M413.8,103.6l-34.9-7l11.2,15.3L413.8,103.6z M413.8,103.6l-19.5-12.5L379,96.7L413.8,103.6z M394.3,91.1l-16.7-7
		l-16.7,8.4L394.3,91.1z M377.6,84.1l-43.2-2.8l26.5,11.2L377.6,84.1z M377.6,84.1l-19.5-9.8l-23.7,7L377.6,84.1z M358.1,74.4
		l-16.7-5.6L312.1,66L358.1,74.4z M312.1,66l22.3,15.3l23.7-7L312.1,66z M312.1,66l-2.8,18.1l25.1-2.8L312.1,66z M331.6,109.2
		l-22.3-25.1l4.2,43.2L331.6,109.2z M352.5,92.5l-18.1-11.2l-2.8,27.9L352.5,92.5z M334.4,81.3l-25.1,2.8l22.3,25.1L334.4,81.3z
		 M360.9,92.5l-26.5-11.2l18.1,11.2H360.9z M352.5,92.5l-9.8,26.5l18.1-26.5H352.5z M360.9,92.5l18.1,4.2l15.3-5.6L360.9,92.5z
		 M360.9,92.5L342.7,119L379,96.7L360.9,92.5z M381.8,109.2L379,96.7L342.7,119L381.8,109.2z M342.7,119l19.5,25.1l19.5-34.9
		L342.7,119z M390.1,112L379,96.7l2.8,12.5L390.1,112z M429.2,116.2l-39-4.2l26.5,7L429.2,116.2z M458.5,151L416.6,119l7,32.1H458.5
		z M416.6,119l-26.5-7l33.5,39L416.6,119z M381.8,109.2l1.4,50.2l7-47.4L381.8,109.2z M383.2,159.4l40.4-8.4l-33.5-39L383.2,159.4z
		 M430.6,165l-7-13.9l-40.4,8.4L430.6,165z M430.6,165l20.9-2.8l7-11.2L430.6,165z M383.2,159.4l44.6,19.5l2.8-13.9L383.2,159.4z
		 M427.8,178.9l23.7-16.7l-20.9,2.8L427.8,178.9z M444.5,195.7l16.7-8.4l-33.5-8.4L444.5,195.7z M461.2,187.3l-16.7,8.4l4.2,9.8
		L461.2,187.3z M461.2,187.3l-9.8-25.1l-23.7,16.7L461.2,187.3z M461.2,187.3l11.2-11.2l-20.9-13.9L461.2,187.3z M465.4,191.5
		l7-15.3l-11.2,11.2L465.4,191.5z M464,198.4l12.5-9.8l-11.2,2.8L464,198.4z M465.4,191.5l-4.2-4.2l2.8,11.2L465.4,191.5z
		 M482.2,202.6l-18.1-4.2l9.8,5.6L482.2,202.6z M461.2,187.3l-9.8,29.3l12.5-18.1L461.2,187.3z M464,198.4l-12.5,18.1l22.3-12.5
		L464,198.4z M473.8,204l-2.8,26.5l15.3-5.6L473.8,204z M473.8,204l-22.3,12.5l19.5,13.9L473.8,204z M451.5,216.6l16.7,16.7l2.8-2.8
		L451.5,216.6z M471,230.5l-2.8,2.8l20.9,2.8L471,230.5z M489.1,236.1l-20.9-2.8l13.9,12.5L489.1,236.1z M468.2,233.3l8.4,25.1
		l5.6-12.5L468.2,233.3z M476.6,258.4l9.8,13.9l-4.2-26.5L476.6,258.4z M469.6,272.3l4.2,15.3l7-15.3H469.6z M480.8,308.6V296
		l-9.8,5.6L480.8,308.6z M469.6,322.5l11.2-8.4l-11.2,2.8V322.5z M480.8,328.1l-5.6-5.6l-2.8,13.9L480.8,328.1z M469.6,272.3
		l1.4,29.3l2.8-13.9L469.6,272.3z M473.8,287.7l7,8.4v-23.7L473.8,287.7z M473.8,287.7l-2.8,13.9l9.8-5.6L473.8,287.7z M471,301.6
		l-1.4,15.3l11.2-2.8L471,301.6z M471,301.6l9.8,12.5v-5.6L471,301.6z M475.2,322.5l5.6,5.6v-13.9L475.2,322.5z M480.8,314.2
		l-11.2,8.4h5.6L480.8,314.2z M469.6,322.5l2.8,13.9l2.8-13.9H469.6z M469.6,322.5v18.1l2.8-4.2L469.6,322.5z M472.4,336.5l8.4,13.9
		v-22.3L472.4,336.5z M472.4,336.5l-2.8,4.2l11.2,9.8L472.4,336.5z M501.7,369.9l-9.8-9.8h-11.2L501.7,369.9z M504.5,378.3
		l-30.7,27.9l30.7-4.2V378.3z M489.1,413.1l9.8,27.9l5.6-9.8L489.1,413.1z M482.2,445.2h9.8l2.8-4.2L482.2,445.2z M437.5,402
		l33.5-13.9l-30.7-23.7L437.5,402z M425,349l-39-20.9l-12.5,39L425,349z M358.1,425.7l34.9,22.3l46-22.3H358.1z M450.1,471.7l7-13.9
		l-29.3,19.5L450.1,471.7z M490.5,379.7l-20.9-20.9l-11.2,1.4L490.5,379.7z M469.6,340.6v18.1l11.2-8.4L469.6,340.6z M469.6,358.8
		l11.2,1.4v-9.8L469.6,358.8z M490.5,379.7l13.9-1.4l-2.8-8.4L490.5,379.7z M501.7,369.9l-20.9-9.8l9.8,19.5L501.7,369.9z
		 M480.8,360.2l-11.2-1.4l20.9,20.9L480.8,360.2z M469.6,358.8h-11.2v1.4L469.6,358.8z M490.5,379.7l-16.7,26.5l30.7-27.9
		L490.5,379.7z M473.8,406.2l15.3,7l15.3-11.2L473.8,406.2z M489.1,413.1l15.3,18.1V402L489.1,413.1z M494.7,441l-2.8,4.2l7-4.2
		H494.7z M489.1,413.1l-15.3-7l20.9,34.9L489.1,413.1z M494.7,441h4.2l-9.8-27.9L494.7,441z M494.7,441l-20.9-34.9l8.4,39L494.7,441
		z M358.1,372.7v37.6l80.9,15.3L358.1,372.7z M358.1,410.4v15.3h80.9L358.1,410.4z M390.1,474.5l16.7-16.7l-26.5,11.2L390.1,474.5z
		 M369.2,453.6l1.4,19.5l5.6-12.5L369.2,453.6z M366.4,478.7l16.7,15.3l18.1,2.8L366.4,478.7z M369.2,453.6l-11.2,7l8.4,18.1
		L369.2,453.6z M358.1,460.6l11.2-7l-11.2-27.9V460.6z M369.2,453.6l-2.8,25.1l4.2-5.6L369.2,453.6z M366.4,478.7l34.9,18.1
		l-11.2-22.3L366.4,478.7z M380.4,468.9l-13.9,9.8l23.7-4.2L380.4,468.9z M401.3,496.8v-15.3l-11.2-7L401.3,496.8z M401.3,481.5h9.8
		l11.2-12.5L401.3,481.5z M411.1,481.5v8.4l7,2.8L411.1,481.5z M418,492.6l20.9-8.4l-11.2-7L418,492.6z M438.9,484.3l11.2-12.5
		l-22.3,5.6L438.9,484.3z M427.8,477.3l-16.7,4.2l7,11.2L427.8,477.3z M457.1,457.8l-18.1-32.1l-16.7,43.2L457.1,457.8z
		 M427.8,477.3l29.3-19.5l-34.9,11.2L427.8,477.3z M422.2,468.9l-11.2,12.5l16.7-4.2L422.2,468.9z M406.9,457.8l-16.7,16.7l11.2,7
		L406.9,457.8z M401.3,481.5l20.9-12.5l-15.3-11.2L401.3,481.5z M422.2,468.9l16.7-43.2l-32.1,32.1L422.2,468.9z M438.9,425.7
		l-46,22.3l13.9,9.8L438.9,425.7z M392.9,448l-16.7,12.5l30.7-2.8L392.9,448z M376.2,460.6l4.2,8.4l26.5-11.2L376.2,460.6z
		 M376.2,460.6l-5.6,12.5l-4.2,5.6l13.9-9.8L376.2,460.6z M420.8,369.9l-34.9,7l44.6,34.9L420.8,369.9z M457.1,457.8l1.4-12.5
		l-8.4-37.6L457.1,457.8z M458.5,445.2l11.2,1.4l5.6-9.8L458.5,445.2z M469.6,446.6v13.9l5.6,2.8L469.6,446.6z M475.2,463.3l5.6-8.4
		l-5.6-18.1V463.3z M475.2,436.8l-5.6,9.8l5.6,16.7V436.8z M480.8,455l1.4-9.8l-7-8.4L480.8,455z M475.2,463.3l5.6-2.8V455
		L475.2,463.3z M482.2,445.2l-8.4-39l1.4,30.7L482.2,445.2z M473.8,406.2l-12.5,13.9l13.9,16.7L473.8,406.2z M461.2,420.1l-2.8,25.1
		l16.7-8.4L461.2,420.1z M461.2,420.1l-11.2-12.5l8.4,37.6L461.2,420.1z M461.2,420.1l12.5-13.9l-23.7,1.4L461.2,420.1z
		 M450.1,407.6l16.7-5.6l4.2-13.9L450.1,407.6z M466.8,402l12.5-15.3l-8.4,1.4L466.8,402z M450.1,407.6l23.7-1.4l-7-4.2L450.1,407.6
		z M473.8,406.2l16.7-26.5l-11.2,7L473.8,406.2z M473.8,406.2l5.6-19.5L466.8,402L473.8,406.2z M437.5,402l12.5,5.6l20.9-19.5
		L437.5,402z M437.5,402l1.4,23.7l11.2-18.1L437.5,402z M438.9,425.7l18.1,31.6l-7-49.8L438.9,425.7z M438.9,425.7l-1.4-23.7l-7,9.8
		L438.9,425.7z M437.5,402l2.8-37.6l-19.5,5.6L437.5,402z M430.6,411.8l7-9.8l-16.7-32.1L430.6,411.8z M490.5,379.7l-32.1-19.5
		l20.9,26.5L490.5,379.7z M479.4,386.7l-20.9-26.5l12.5,27.9L479.4,386.7z M458.5,358.8v-8.4l-22.3-11.2L458.5,358.8z M458.5,350.4
		l-11.2-20.9l-11.2,9.8L458.5,350.4z M447.3,329.5l-11.2-8.4l-8.4,1.4L447.3,329.5z M425,312.8l2.8,9.8l8.4-1.4L425,312.8z
		 M425,312.8h-11.2l5.6,23.7L425,312.8z M413.8,312.8l-2.8,4.2v11.2L413.8,312.8z M411.1,322.5h-9.8l-7,4.2L411.1,322.5z M386,315.6
		l15.3,7v-15.3L386,315.6z M401.3,322.5l-15.3-7l8.4,11.2L401.3,322.5z M436.2,339.3l-16.7-2.8L425,349L436.2,339.3z M447.3,329.5
		l-19.5-7l8.4,16.7L447.3,329.5z M427.8,322.5l-8.4,13.9l16.7,2.8L427.8,322.5z M419.4,336.5l8.4-13.9l-2.8-9.8L419.4,336.5z
		 M386,328.1l33.5,8.4l-8.4-8.4H386z M386,328.1l39,20.9l-5.6-12.5L386,328.1z M394.3,326.7l-8.4,1.4h25.1L394.3,326.7z
		 M394.3,326.7l16.7,1.4v-5.6L394.3,326.7z M471,388.1l-12.5-27.9l-18.1,4.2L471,388.1z M458.5,358.8l-22.3-19.5l4.2,25.1
		L458.5,358.8z M440.3,364.3l18.1-4.2v-1.4L440.3,364.3z M436.2,339.3L425,349l-4.2,20.9L436.2,339.3z M435.9,340l-15.1,30l19.5-5.6
		l-4.2-25.1 M425,349l-51.6,18.1l47.4,2.8L425,349z M386,376.9l34.9-7l-47.4-2.8L386,376.9z M438.5,425l-7.9-13.2l-72.5-39
		L438.5,425z M430.6,411.8L386,376.9l-27.9-4.2L430.6,411.8z M372,321.1l-7,9.8l5.6,18.1L372,321.1z M358.1,358.8l15.3-4.2
		l-15.3-11.2V358.8z M381.8,329.5l1.4-16.7l-9.8,5.6L381.8,329.5z M401.3,307.2l-11.2,1.4l-7,4.2L401.3,307.2z M383.2,312.8l2.8,2.8
		l15.3-8.4L383.2,312.8z M383.2,312.8l-1.4,16.7l4.2-13.9L383.2,312.8z M381.8,329.5l4.2-1.4v-12.5L381.8,329.5z M386,328.1l8.4-1.4
		l-8.4-11.2V328.1z M386,376.9l-12.5-9.8l-15.3,5.6L386,376.9z M373.4,354.6l-15.3,4.2v13.9L373.4,354.6z M370.6,349l2.8,5.6
		l8.4-25.1L370.6,349z M373.4,354.6l-2.8-5.6l-12.5-5.6L373.4,354.6z M370.6,349l-5.6-18.1l-7,12.5L370.6,349z M381.8,329.5
		l-8.4-11.2l-1.4,2.8L381.8,329.5z M370.6,349l11.2-19.5l-9.8-8.4L370.6,349z M373.4,367.1v-12.5l-15.3,18.1L373.4,367.1z
		 M358.1,410.4L379,402l-20.9-29.3V410.4z M358.1,410.4l80.9,15.3L379,402L358.1,410.4z M438.9,425.7l-80.9-53L379,402L438.9,425.7z
		 M358.1,410.4l12.5,9.8l68.3,5.6L358.1,410.4z M358.1,410.4v15.3l12.5-5.6L358.1,410.4z M358.1,425.7h80.9l-68.3-5.6L358.1,425.7z
		 M270.2,100.8l-19.5-16.7L280,63.2L270.2,100.8z M270.2,100.8l-19.5-16.7l9.8,26.5L270.2,100.8z M260.5,110.6H280l-9.8-9.8
		L260.5,110.6z M280,110.6V63.2l-9.8,37.6L280,110.6z M280,110.6l-12.5,16.7l12.5-7V110.6z M267.5,127.3H280v-7L267.5,127.3z
		 M280,110.6h-19.5l7,16.7L280,110.6z M280,63.2L247.9,66l2.8,18.1L280,63.2z M260.5,110.6l-13.9,16.7h20.9L260.5,110.6z
		 M260.5,110.6l-9.8-26.5l-4.2,43.2L260.5,110.6z M207.5,92.5l9.8,26.5l11.2-9.8L207.5,92.5z M235.4,130.1l11.2-2.8l-18.1-18.1
		L235.4,130.1z M228.4,109.2l-4.2,25.1l11.2-4.2L228.4,109.2z M224.2,134.3l-7-15.3l-19.5,25.1L224.2,134.3z M178.2,109.2l-1.4,50.2
		l20.9-15.3L178.2,109.2z M132.2,178.9l27.9-1.4l16.7-18.1L132.2,178.9z M132.2,178.9l16.7,15.3l11.2-16.7L132.2,178.9z M133.6,204
		h8.4l7-9.8L133.6,204z M148.9,194.3l-16.7-15.3l1.4,25.1L148.9,194.3z M132.2,178.9l-16.7,16.7l18.1,8.4L132.2,178.9z M115.5,195.7
		l-4.2,9.8l22.3-1.4L115.5,195.7z M98.8,187.3l9.8,29.3l2.8-11.2L98.8,187.3z M91.8,233.3l13.9-8.4l2.8-8.4L91.8,233.3z M91.8,233.3
		l11.2,5.6l2.8-13.9L91.8,233.3z M91.8,233.3l9.8,15.3l1.4-9.8L91.8,233.3z M96,272.3l5.6-2.8v-20.9L96,272.3z M83.4,258.4l7,13.9
		H96L83.4,258.4z M96,272.3l5.6-23.7l-18.1,9.8L96,272.3z M91.8,233.3l-8.4,25.1l18.1-9.8L91.8,233.3z M83.4,258.4l-9.8,13.9h16.7
		L83.4,258.4z M77.8,245.8l-9.8,22.3l5.6,4.2L77.8,245.8z M77.8,245.8l-7-9.8l-2.8,32.1L77.8,245.8z M89,230.5l-15.3-5.6l-2.8,11.2
		L89,230.5z M86.2,204l-11.2,8.4l-1.4,12.5L86.2,204z M86.2,204l-8.4-1.4l-2.8,9.8L86.2,204z M96,198.4l-12.5-9.8l-5.6,13.9
		L96,198.4z M94.6,191.5l-7-15.3l-4.2,12.5L94.6,191.5z M108.5,162.2L93.2,165l-5.6,11.2L108.5,162.2z M108.5,162.2l-7-11.2
		L93.2,165L108.5,162.2z M129.4,165l7-13.9h-34.9L129.4,165z M143.4,119l-25.1,11.2L101.5,151L143.4,119z M143.4,119l-12.5-2.8
		l-12.5,13.9L143.4,119z M169.9,112l-23.7-8.4l-15.3,12.5L169.9,112z M169.9,112L181,96.7l-34.9,7L169.9,112z M181,96.7l-15.3-5.6
		l-19.5,12.5L181,96.7z M199.1,92.5l-16.7-8.4l-16.7,7L199.1,92.5z M199.1,92.5l26.5-11.2l-43.2,2.8L199.1,92.5z M225.6,81.3
		l-23.7-7l-19.5,9.8L225.6,81.3z M247.9,66l-29.3,2.8l-16.7,5.6L247.9,66z M201.9,74.4l23.7,7L247.9,66L201.9,74.4z M225.6,81.3
		l25.1,2.8L247.9,66L225.6,81.3z M246.5,127.3l4.2-43.2l-22.3,25.1L246.5,127.3z M228.4,109.2l-2.8-27.9l-18.1,11.2L228.4,109.2z
		 M228.4,109.2l22.3-25.1l-25.1-2.8L228.4,109.2z M207.5,92.5l18.1-11.2l-26.5,11.2H207.5z M199.1,92.5l18.1,26.5l-9.8-26.5H199.1z
		 M165.7,91.1l15.3,5.6l18.1-4.2L165.7,91.1z M181,96.7l36.2,22.3l-18.1-26.5L181,96.7z M217.3,119L181,96.7l-2.8,12.5L217.3,119z
		 M178.2,109.2l19.5,34.9l19.5-25.1L178.2,109.2z M178.2,109.2l2.8-12.5L169.9,112L178.2,109.2z M143.4,119l26.5-7l-39,4.2
		L143.4,119z M136.4,151l7-32.1L101.5,151H136.4z M136.4,151l33.5-39l-26.5,7L136.4,151z M169.9,112l7,47.4l1.4-50.2L169.9,112z
		 M169.9,112l-33.5,39l40.4,8.4L169.9,112z M176.8,159.4l-40.4-8.4l-7,13.9L176.8,159.4z M101.5,151l7,11.2l20.9,2.8L101.5,151z
		 M129.4,165l2.8,13.9l44.6-19.5L129.4,165z M129.4,165l-20.9-2.8l23.7,16.7L129.4,165z M132.2,178.9l-33.5,8.4l16.7,8.4
		L132.2,178.9z M111.3,205.4l4.2-9.8l-16.7-8.4L111.3,205.4z M132.2,178.9l-23.7-16.7l-9.8,25.1L132.2,178.9z M108.5,162.2
		l-20.9,13.9l11.2,11.2L108.5,162.2z M98.8,187.3l-11.2-11.2l7,15.3L98.8,187.3z M94.6,191.5l-11.2-2.8l12.5,9.8L94.6,191.5z
		 M96,198.4l2.8-11.2l-4.2,4.2L96,198.4z M86.2,204l9.8-5.6l-18.1,4.2L86.2,204z M96,198.4l12.5,18.1l-9.8-29.3L96,198.4z M86.2,204
		l22.3,12.5L96,198.4L86.2,204z M73.7,224.9l15.3,5.6L86.2,204L73.7,224.9z M89,230.5l19.5-13.9L86.2,204L89,230.5z M89,230.5
		l2.8,2.8l16.7-16.7L89,230.5z M70.9,236.1l20.9-2.8l-2.8-2.8L70.9,236.1z M77.8,245.8l13.9-12.5l-20.9,2.8L77.8,245.8z M77.8,245.8
		l5.6,12.5l8.4-25.1L77.8,245.8z M77.8,245.8l-4.2,26.5l9.8-13.9L77.8,245.8z M79.2,272.3l7,15.3l4.2-15.3H79.2z M89,301.6l-9.8-5.6
		v12.5L89,301.6z M90.4,316.9l-11.2-2.8l11.2,8.4V316.9z M87.6,336.5l-2.8-13.9l-5.6,5.6L87.6,336.5z M86.2,287.7l2.8,13.9l1.4-29.3
		L86.2,287.7z M79.2,272.3V296l7-8.4L79.2,272.3z M79.2,296l9.8,5.6l-2.8-13.9L79.2,296z M79.2,314.2l11.2,2.8L89,301.6L79.2,314.2z
		 M79.2,308.6v5.6l9.8-12.5L79.2,308.6z M79.2,314.2v13.9l5.6-5.6L79.2,314.2z M84.8,322.5h5.6l-11.2-8.4L84.8,322.5z M84.8,322.5
		l2.8,13.9l2.8-13.9H84.8z M87.6,336.5l2.8,4.2v-18.1L87.6,336.5z M79.2,328.1v22.3l8.4-13.9L79.2,328.1z M79.2,350.4l11.2-9.8
		l-2.8-4.2L79.2,350.4z M79.2,360.2H68.1l-9.8,9.8L79.2,360.2z M55.5,402l30.7,4.2l-30.7-27.9V402z M55.5,431.3l5.6,9.8l9.8-27.9
		L55.5,431.3z M65.3,441l2.8,4.2h9.8L65.3,441z M119.7,364.3L89,388.1l33.5,13.9L119.7,364.3z M186.6,367.1l-12.5-39L135,349
		L186.6,367.1z M121.1,425.7l46,22.3l34.9-22.3H121.1z M132.2,477.3l-29.3-19.5l7,13.9L132.2,477.3z M101.5,360.2l-11.2-1.4
		l-20.9,20.9L101.5,360.2z M79.2,350.4l11.2,8.4v-18.1L79.2,350.4z M79.2,350.4v9.8l11.2-1.4L79.2,350.4z M58.3,369.9l-2.8,8.4
		l13.9,1.4L58.3,369.9z M69.5,379.7l9.8-19.5l-20.9,9.8L69.5,379.7z M69.5,379.7l20.9-20.9l-11.2,1.4L69.5,379.7z M101.5,360.2v-1.4
		H90.4L101.5,360.2z M55.5,378.3l30.7,27.9l-16.7-26.5L55.5,378.3z M55.5,402l15.3,11.2l15.3-7L55.5,402z M55.5,402v29.3l15.3-18.1
		L55.5,402z M61.1,441l7,4.2l-2.8-4.2H61.1z M65.3,441l20.9-34.9l-15.3,7L65.3,441z M70.9,413.1L61.1,441h4.2L70.9,413.1z
		 M77.8,445.2l8.4-39L65.3,441L77.8,445.2z M121.1,425.7l80.9-15.3v-37.6L121.1,425.7z M121.1,425.7h80.9v-15.3L121.1,425.7z
		 M179.6,468.9l-26.5-11.2l16.7,16.7L179.6,468.9z M183.8,460.6l5.6,12.5l1.4-19.5L183.8,460.6z M158.7,496.8l18.1-2.8l16.7-15.3
		L158.7,496.8z M193.6,478.7l8.4-18.1l-11.2-7L193.6,478.7z M201.9,425.7l-11.2,27.9l11.2,7V425.7z M189.4,473.1l4.2,5.6l-2.8-25.1
		L189.4,473.1z M169.9,474.5l-11.2,22.3l34.9-18.1L169.9,474.5z M169.9,474.5l23.7,4.2l-13.9-9.8L169.9,474.5z M169.9,474.5l-11.2,7
		v15.3L169.9,474.5z M137.8,468.9l11.2,12.5h9.8L137.8,468.9z M142,492.6l7-2.8v-8.4L142,492.6z M132.2,477.3l-11.2,7l20.9,8.4
		L132.2,477.3z M132.2,477.3l-22.3-5.6l11.2,12.5L132.2,477.3z M142,492.6l7-11.2l-16.7-4.2L142,492.6z M137.8,468.9l-16.7-43.2
		l-18.1,32.1L137.8,468.9z M137.8,468.9l-34.9-11.2l29.3,19.5L137.8,468.9z M132.2,477.3l16.7,4.2l-11.2-12.5L132.2,477.3z
		 M158.7,481.5l11.2-7l-16.7-16.7L158.7,481.5z M153.1,457.8l-15.3,11.2l20.9,12.5L153.1,457.8z M153.1,457.8l-32.1-32.1l16.7,43.2
		L153.1,457.8z M153.1,457.8l13.9-9.8l-46-22.3L153.1,457.8z M153.1,457.8l30.7,2.8L167.1,448L153.1,457.8z M153.1,457.8l26.5,11.2
		l4.2-8.4L153.1,457.8z M179.6,468.9l13.9,9.8l-4.2-5.6l-5.6-12.5L179.6,468.9z M129.4,411.8l44.6-34.9l-34.9-7L129.4,411.8z
		 M109.9,407.6l-8.4,37.6l1.4,12.5L109.9,407.6z M84.8,436.8l5.6,9.8l11.2-1.4L84.8,436.8z M84.8,463.3l5.6-2.8v-13.9L84.8,463.3z
		 M84.8,436.8L79.2,455l5.6,8.4V436.8z M84.8,463.3l5.6-16.7l-5.6-9.8V463.3z M84.8,436.8l-7,8.4l1.4,9.8L84.8,436.8z M79.2,455v5.6
		l5.6,2.8L79.2,455z M84.8,436.8l1.4-30.7l-8.4,39L84.8,436.8z M84.8,436.8l13.9-16.7l-12.5-13.9L84.8,436.8z M84.8,436.8l16.7,8.4
		l-2.8-25.1L84.8,436.8z M101.5,445.2l8.4-37.6l-11.2,12.5L101.5,445.2z M109.9,407.6l-23.7-1.4l12.5,13.9L109.9,407.6z M89,388.1
		l4.2,13.9l16.7,5.6L89,388.1z M89,388.1l-8.4-1.4L93.2,402L89,388.1z M93.2,402l-7,4.2l23.7,1.4L93.2,402z M80.6,386.7l-11.2-7
		l16.7,26.5L80.6,386.7z M93.2,402l-12.5-15.3l5.6,19.5L93.2,402z M89,388.1l20.9,19.5l12.5-5.6L89,388.1z M109.9,407.6l11.2,18.1
		l1.4-23.7L109.9,407.6z M109.9,407.6l-7,49.8l18.1-31.6L109.9,407.6z M129.4,411.8l-7-9.8l-1.4,23.7L129.4,411.8z M139.2,369.9
		l-19.5-5.6l2.8,37.6L139.2,369.9z M139.2,369.9L122.5,402l7,9.8L139.2,369.9z M80.6,386.7l20.9-26.5l-32.1,19.5L80.6,386.7z
		 M89,388.1l12.5-27.9l-20.9,26.5L89,388.1z M123.8,339.3l-22.3,11.2v8.4L123.8,339.3z M123.8,339.3l-11.2-9.8l-11.2,20.9
		L123.8,339.3z M132.2,322.5l-8.4-1.4l-11.2,8.4L132.2,322.5z M123.8,321.1l8.4,1.4l2.8-9.8L123.8,321.1z M140.6,336.5l5.6-23.7H135
		L140.6,336.5z M148.9,328.1v-11.2l-2.8-4.2L148.9,328.1z M165.7,326.7l-7-4.2h-9.8L165.7,326.7z M158.7,307.2v15.3l15.3-7
		L158.7,307.2z M165.7,326.7l8.4-11.2l-15.3,7L165.7,326.7z M135,349l5.6-12.5l-16.7,2.8L135,349z M123.8,339.3l8.4-16.7l-19.5,7
		L123.8,339.3z M123.8,339.3l16.7-2.8l-8.4-13.9L123.8,339.3z M135,312.8l-2.8,9.8l8.4,13.9L135,312.8z M148.9,328.1l-8.4,8.4
		l33.5-8.4H148.9z M140.6,336.5L135,349l39-20.9L140.6,336.5z M148.9,328.1H174l-8.4-1.4L148.9,328.1z M148.9,322.5v5.6l16.7-1.4
		L148.9,322.5z M119.7,364.3l-18.1-4.2L89,388.1L119.7,364.3z M119.7,364.3l4.2-25.1l-22.3,19.5L119.7,364.3z M101.5,358.8v1.4
		l18.1,4.2L101.5,358.8z M139.2,369.9L135,349l-11.2-9.8L139.2,369.9z M123.8,339.3l-4.2,25.1l19.5,5.6l-15.1-30 M139.2,369.9
		l47.4-2.8L135,349L139.2,369.9z M186.6,367.1l-47.4,2.8l34.9,7L186.6,367.1z M201.9,372.7l-72.5,39l-7.9,13.2L201.9,372.7z
		 M201.9,372.7l-27.9,4.2l-44.6,34.9L201.9,372.7z M189.4,349l5.6-18.1l-7-9.8L189.4,349z M201.9,343.4l-15.3,11.2l15.3,4.2V343.4z
		 M186.6,318.3l-9.8-5.6l1.4,16.7L186.6,318.3z M176.8,312.8l-7-4.2l-11.2-1.4L176.8,312.8z M158.7,307.2l15.3,8.4l2.8-2.8
		L158.7,307.2z M174,315.6l4.2,13.9l-1.4-16.7L174,315.6z M174,315.6v12.5l4.2,1.4L174,315.6z M174,315.6l-8.4,11.2l8.4,1.4V315.6z
		 M201.9,372.7l-15.3-5.6l-12.5,9.8L201.9,372.7z M201.9,372.7v-13.9l-15.3-4.2L201.9,372.7z M178.2,329.5l8.4,25.1l2.8-5.6
		L178.2,329.5z M201.9,343.4l-12.5,5.6l-2.8,5.6L201.9,343.4z M201.9,343.4l-7-12.5l-5.6,18.1L201.9,343.4z M188,321.1l-1.4-2.8
		l-8.4,11.2L188,321.1z M188,321.1l-9.8,8.4l11.2,19.5L188,321.1z M201.9,372.7l-15.3-18.1v12.5L201.9,372.7z M201.9,372.7L181,402
		l20.9,8.4V372.7z M181,402l-60,23.7l80.9-15.3L181,402z M181,402l20.9-29.3l-80.9,53L181,402z M121.1,425.7l68.3-5.6l12.5-9.8
		L121.1,425.7z M189.4,420.1l12.5,5.6v-15.3L189.4,420.1z M189.4,420.1l-68.3,5.6h80.9L189.4,420.1z"/>
</g>
<g id="outline-headphone-left">
	<polygon id="outline-headphone1" class="st2" points="278.6,60.4 221.4,64.5 182.3,82.7 150.3,96.6 108.4,130.1 81.9,174.7 
		68,216.5 63.8,270.9 75,270.9 73.6,357.4 63.8,357.4 52.6,370 54,427.1 59.6,445.3 72.2,446.7 76.4,463.4 84.7,462 84.7,446.7 
		94.5,446.7 101.5,463.4 114,480.1 141.9,494.1 144.7,485.7 155.8,485.7 155.8,499.6 171.2,496.9 186.5,487.1 197.7,469 200.5,462 
		200.5,363 200.5,340.7 183.7,315.6 169.8,308.6 155.8,304.4 155.8,322.5 146.1,321.1 143.3,312.8 132.1,312.8 115.4,321.1 
		98.7,346.2 95.9,358.8 88.9,358.8 87.5,273.7 98.7,270.9 100.1,234.7 109.8,202.6 126.6,202.6 143.3,199.8 154.4,180.3 
		165.6,167.7 192.1,142.6 218.6,132.9 229.8,130.1 266,123.1 278.6,121.7 281.4,60.4 	"/>
</g>
<g id="outline-headphone-right">
	<polygon id="outline-headphone2" class="st2" points="281.4,60.4 338.6,64.5 377.7,82.7 409.7,96.6 451.6,130.1 478.1,174.7 
		492,216.5 496.2,270.9 485,270.9 486.4,357.4 496.2,357.4 507.4,370 506,427.1 500.4,445.3 487.8,446.7 483.6,463.4 475.3,462 
		475.3,446.7 465.5,446.7 458.5,463.4 446,480.1 418.1,494.1 415.3,485.7 404.2,485.7 404.2,499.6 388.8,496.9 373.5,487.1 
		362.3,469 359.5,462 359.5,363 359.5,340.7 376.3,315.6 390.2,308.6 404.2,304.4 404.2,322.5 413.9,321.1 416.7,312.8 427.9,312.8 
		444.6,321.1 461.3,346.2 464.1,358.8 471.1,358.8 472.5,273.7 461.3,270.9 459.9,234.7 450.2,202.6 433.4,202.6 416.7,199.8 
		405.6,180.3 394.4,167.7 367.9,142.6 341.4,132.9 330.2,130.1 294,123.1 281.4,121.7 278.6,60.4 	"/>
</g>
<g id="inside-icon">
	<polygon id="icon" fill="#ffffff" class="st1" points="268,202 259,195 250,188 243,183 235,177 236,192 235,212 238,226 236,231 235,245 236,250 
		238,259 236,266 234,282 236,293 238,301 236,317 236,323 238,328 236,335 234,347 236,356 237,364 236,374 248,365 253,361 
		257,358 262,355 265,353 270,350 275,347 280,343 285,340 291,336 296,333 307,325 312,322 317,319 324,314 330,311 335,307 
		346,300 354,294 361,289 368,284 371,278 371,274 367,269 361,264 350,256 345,253 338,248 332,244 326,241 317,235 309,230 
		303,225 297,221 290,216 283,212 276,207">

	<animate id="animation-to-heart" begin="indefinite" fill="freeze" attributeName="points" dur="500ms" to="264,179 259,189 257,218 233,177 224,175 231,188 221,184 213,188 214,194 224,195 236,202 
		241,209 231,219 231,223 227,225 225,241 219,246 213,249 213,265 215,268 211,285 217,305 234,326 237,330 243,335 247,338 
		252,343 264,357 279,372 289,372 306,360 334,317 328,300 331,287 334,283 328,274 332,267 334,257 339,258 346,255 346,250 
		351,247 348,241 344,243 344,239 339,240 345,232 337,220 335,222 333,216 310,227 298,215 285,211 285,202 305,195 301,188 
		281,191 273,199 269,220 267,221 271,179"/>

	<animate id="animation-to-play" begin="indefinite" fill="freeze" attributeName="points" dur="500ms" to="268,202 259,195 250,188 243,183 235,177 236,192 235,212 238,226 236,231 235,245 236,250 
		238,259 236,266 234,282 236,293 238,301 236,317 236,323 238,328 236,335 234,347 236,356 237,364 236,374 248,365 253,361 
		257,358 262,355 265,353 270,350 275,347 280,343 285,340 291,336 296,333 307,325 312,322 317,319 324,314 330,311 335,307 
		346,300 354,294 361,289 368,284 371,278 371,274 367,269 361,264 350,256 345,253 338,248 332,244 326,241 317,235 309,230 
		303,225 297,221 290,216 283,212 276,207"/>
		
	</polygon>

	<path id="detail-heart" class="blur" stroke="#ffffff" fill="none" d="M270.4,185.6L263,197l-4-8l12-10 M263,197l1,23l3,1 M271,179h-7l-5,10l-2,29l-24-41l-9-2
		l7,13l-10-4l-8,4l1,6l10,1l12,7l5,7l-10,10v4l-4,2l-2,16l-6,5l-6,3v16l2,3l-4,17l6,20l20,25l10,8l6,6l11,13l15,15h10l17-12l28-43
		l-6-17l3-13l3-4l-6-9l4-7l2-10l5,1l7-3v-5l5-3l-3-6l-4,2v-4l-5,1l6-8l-8-12l-2,2l-2-6l-23,11l-12-12l-13-4v-9l20-7l-4-7l-20,3l-8,8
		l-4,21l-2,1L271,179z M214,271l11,1l18-16l20-28l-18-9l-4-10l16,9l6,10l1-8 M214,295l11-23l-10-4 M211,285l6.5,2.7 M213,265l9-5
		l-3-14 M213,249l9,11l17-15l-6-8l-8,4 M238,230l7-11l-10,1l-4-1 M235,220l-4,3l7,7l1,15l4,11l7-22l-3-6l-9,2 M313,350l-21-14l-14-6
		 M312.6,349.7L291,349l8,16 M321,337l-13-3l-0.8,12L321,337z M327,328l-23-5l4,11 M334,317l-30,6l-21-9l9,22l-3,36l-11-42l1,42
		l6.5-13.4 M244,317l23-1l16-2l30-16l8-6l10-5l-3-13l-10-8l10-15l16-8l2,7l-12,7l-6-6 M333,216l-14,21l26-5 M335,222l-16,15l-9-10
		l-8,14l17-4l5,8l15-5 M273,199l6,14l6-2 M295,214v9l7,18l-6,25l28-21 M302,219l-7,4l-16-10l-2,7h-8 M277,220l18,3 M243,256l24,22
		l22-23l1-9l-2-9l-11-9h-14 M267,278l10-50l-18,25L267,278l20-42 M303,283l17-5l8-4l-7.9,18.7L303,283l-7-17l-7-11l4,28l20,15
		L303,283z M318,266l-19.6,5.9 M320,278l2.5-8.4 M303,283h-10l-9,9l-1,22 M259,281l-15,19l9-25l15,15l16,2l6.6-26l-11.2-0.9L268,290
		l-1,26 M284,292l-4-26.9 M230,288l5-7l18-6l-10-19 M247,338l31-8l-11-14l-30,14l7-13v-17l-14-12l-5-16l10,9 M237,203l5-11l-18,3
		 M221,184l-3,5l13-1l11,4 M218,189l-4,5 M231,188l2-11 M313,298l-9,25l24-23L313,298z"/>
</g>
</svg>
